G04 Layer_Color=8388736*
%FSLAX44Y44*%
%MOMM*%
G71*
G01*
G75*
%ADD32R,1.0000X1.1500*%
%ADD33R,0.9000X1.1500*%
%ADD34R,1.0128X1.1144*%
%ADD35R,2.7500X1.3600*%
%ADD36R,1.7494X0.7588*%
%ADD37R,7.9216X6.8548*%
%ADD38R,1.9018X1.1398*%
%ADD39R,1.1500X1.0000*%
%ADD40R,1.1144X1.0128*%
%ADD41C,1.7000*%
%ADD42C,0.2000*%
%ADD43C,1.6478*%
%ADD44C,5.7000*%
%ADD45C,1.7240*%
G36*
X214568Y296346D02*
X216402Y295586D01*
X217978Y294378D01*
X219186Y292803D01*
X219946Y290968D01*
X220205Y289000D01*
X219946Y287032D01*
X219186Y285198D01*
X217978Y283623D01*
X216402Y282414D01*
X214568Y281654D01*
X212600Y281395D01*
X210632Y281654D01*
X208797Y282414D01*
X207222Y283623D01*
X206014Y285198D01*
X205254Y287032D01*
X204995Y289000D01*
X205254Y290968D01*
X206014Y292803D01*
X207222Y294378D01*
X208797Y295586D01*
X210632Y296346D01*
X212600Y296605D01*
X214568Y296346D01*
D02*
G37*
G36*
X239968D02*
X241803Y295586D01*
X243378Y294378D01*
X244586Y292803D01*
X245346Y290968D01*
X245605Y289000D01*
X245346Y287032D01*
X244586Y285198D01*
X243378Y283623D01*
X241803Y282414D01*
X239968Y281654D01*
X238000Y281395D01*
X236032Y281654D01*
X234198Y282414D01*
X232622Y283623D01*
X231414Y285198D01*
X230654Y287032D01*
X230395Y289000D01*
X230654Y290968D01*
X231414Y292803D01*
X232622Y294378D01*
X234198Y295586D01*
X236032Y296346D01*
X238000Y296605D01*
X239968Y296346D01*
D02*
G37*
G36*
X227268Y315396D02*
X229102Y314636D01*
X230678Y313428D01*
X231886Y311853D01*
X232646Y310019D01*
X232905Y308050D01*
X232646Y306082D01*
X231886Y304248D01*
X230678Y302673D01*
X229102Y301464D01*
X227268Y300704D01*
X225300Y300445D01*
X223332Y300704D01*
X221497Y301464D01*
X219922Y302673D01*
X218714Y304248D01*
X217954Y306082D01*
X217695Y308050D01*
X217954Y310019D01*
X218714Y311853D01*
X219922Y313428D01*
X221497Y314636D01*
X223332Y315396D01*
X225300Y315655D01*
X227268Y315396D01*
D02*
G37*
D32*
X341500Y252000D02*
D03*
X355000D02*
D03*
X352250Y527425D02*
D03*
X338750D02*
D03*
X208500Y537515D02*
D03*
X222000D02*
D03*
X338750Y553963D02*
D03*
X352250D02*
D03*
X221750Y513473D02*
D03*
X208250D02*
D03*
X338750Y466000D02*
D03*
X352250D02*
D03*
X223750Y367003D02*
D03*
X210250D02*
D03*
X223750Y391003D02*
D03*
X210250D02*
D03*
X338750Y500888D02*
D03*
X352250D02*
D03*
X210250Y342002D02*
D03*
X223750D02*
D03*
X210250Y413003D02*
D03*
X223750D02*
D03*
X354751Y412810D02*
D03*
X341250D02*
D03*
X354750Y361537D02*
D03*
X341250D02*
D03*
X354750Y386768D02*
D03*
X341250D02*
D03*
X208680Y636957D02*
D03*
X222180D02*
D03*
X341250Y309451D02*
D03*
X354751D02*
D03*
X352500Y635082D02*
D03*
X339000D02*
D03*
X341250Y335494D02*
D03*
X354751D02*
D03*
X339000Y582000D02*
D03*
X352500D02*
D03*
X339000Y608382D02*
D03*
X352500D02*
D03*
X208250Y488250D02*
D03*
X221750D02*
D03*
D33*
X171500Y313500D02*
D03*
X181000Y289000D02*
D03*
X162000D02*
D03*
D34*
X296000Y228000D02*
D03*
X308954D02*
D03*
X296000Y182000D02*
D03*
X308954D02*
D03*
X209046Y562000D02*
D03*
X222000D02*
D03*
X339046Y442000D02*
D03*
X352000D02*
D03*
X341617Y283285D02*
D03*
X354571D02*
D03*
X209046Y584000D02*
D03*
X222000D02*
D03*
X209046Y610541D02*
D03*
X222000D02*
D03*
D35*
X471550Y230800D02*
D03*
X524950D02*
D03*
X471550Y256200D02*
D03*
Y281600D02*
D03*
Y307000D02*
D03*
Y332400D02*
D03*
X524950Y256200D02*
D03*
Y281600D02*
D03*
Y307000D02*
D03*
Y332400D02*
D03*
Y357800D02*
D03*
Y383200D02*
D03*
X471550Y357800D02*
D03*
Y383200D02*
D03*
D36*
X306297Y537823D02*
D03*
Y525123D02*
D03*
Y512423D02*
D03*
Y499723D02*
D03*
X252703D02*
D03*
Y512423D02*
D03*
Y525123D02*
D03*
Y537823D02*
D03*
X306297Y442550D02*
D03*
Y429850D02*
D03*
Y417150D02*
D03*
Y404450D02*
D03*
X252703D02*
D03*
Y417150D02*
D03*
Y429850D02*
D03*
Y442550D02*
D03*
Y573123D02*
D03*
Y585823D02*
D03*
Y598523D02*
D03*
Y611223D02*
D03*
X306297D02*
D03*
Y598523D02*
D03*
Y585823D02*
D03*
Y573123D02*
D03*
D37*
X204913Y205500D02*
D03*
D38*
X266000Y228000D02*
D03*
Y183000D02*
D03*
D39*
X197000Y449750D02*
D03*
Y436250D02*
D03*
D40*
X224000Y449954D02*
D03*
Y437000D02*
D03*
D41*
X120000Y90200D02*
D03*
Y120200D02*
D03*
X120200Y216000D02*
D03*
X90200D02*
D03*
Y246000D02*
D03*
X120200D02*
D03*
Y276000D02*
D03*
X90200D02*
D03*
X374000Y121000D02*
D03*
Y91000D02*
D03*
X344000D02*
D03*
Y121000D02*
D03*
X314000D02*
D03*
Y91000D02*
D03*
X404000Y121000D02*
D03*
Y91000D02*
D03*
X120000Y471000D02*
D03*
X90000D02*
D03*
Y501000D02*
D03*
X120000D02*
D03*
Y531000D02*
D03*
X90000D02*
D03*
X232000Y91000D02*
D03*
Y121000D02*
D03*
X202000D02*
D03*
Y91000D02*
D03*
X491800Y146000D02*
D03*
X461800D02*
D03*
X90000Y359000D02*
D03*
X120000D02*
D03*
Y389000D02*
D03*
X90000D02*
D03*
D42*
X120000Y47000D02*
D03*
X47000Y246000D02*
D03*
X336000Y47800D02*
D03*
X383000D02*
D03*
X46800Y501000D02*
D03*
X217000Y47800D02*
D03*
X535000Y146000D02*
D03*
X46800Y374000D02*
D03*
D43*
X409600Y535600D02*
D03*
Y510200D02*
D03*
Y484800D02*
D03*
Y459400D02*
D03*
Y434000D02*
D03*
Y408600D02*
D03*
Y383200D02*
D03*
Y357800D02*
D03*
Y332400D02*
D03*
Y307000D02*
D03*
Y281600D02*
D03*
Y256200D02*
D03*
Y230800D02*
D03*
Y205400D02*
D03*
X435000D02*
D03*
X460400D02*
D03*
X485800D02*
D03*
X511200D02*
D03*
X536600D02*
D03*
X562000D02*
D03*
Y230800D02*
D03*
Y256200D02*
D03*
Y281600D02*
D03*
Y307000D02*
D03*
Y332400D02*
D03*
Y357800D02*
D03*
Y383200D02*
D03*
Y408600D02*
D03*
Y434000D02*
D03*
Y459400D02*
D03*
Y484800D02*
D03*
Y510200D02*
D03*
Y535600D02*
D03*
X536600Y510200D02*
D03*
Y459400D02*
D03*
Y434000D02*
D03*
Y408600D02*
D03*
D44*
X45000Y609000D02*
D03*
X534000D02*
D03*
Y49000D02*
D03*
X45000Y49000D02*
D03*
D45*
X291000Y326000D02*
D03*
M02*
