G04 Layer_Color=65535*
%FSLAX44Y44*%
%MOMM*%
G71*
G01*
G75*
%ADD19C,0.2500*%
%ADD28C,0.1270*%
%ADD29C,0.1524*%
%ADD30C,0.2032*%
%ADD31C,0.2000*%
D19*
X154250Y289000D02*
G03*
X154250Y289000I-1250J0D01*
G01*
X452000Y88000D02*
Y102995D01*
X456998Y97997D01*
X461997Y102995D01*
Y88000D01*
X474493Y102995D02*
X469494D01*
X466995Y100496D01*
Y90499D01*
X469494Y88000D01*
X474493D01*
X476992Y90499D01*
Y100496D01*
X474493Y102995D01*
X481990D02*
X491987D01*
X486989D01*
Y88000D01*
X504483Y102995D02*
X499485D01*
X496985Y100496D01*
Y90499D01*
X499485Y88000D01*
X504483D01*
X506982Y90499D01*
Y100496D01*
X504483Y102995D01*
X511981Y88000D02*
Y102995D01*
X519478D01*
X521977Y100496D01*
Y95498D01*
X519478Y92998D01*
X511981D01*
X516979D02*
X521977Y88000D01*
X322997Y152496D02*
X320498Y154995D01*
X315499D01*
X313000Y152496D01*
Y149997D01*
X315499Y147498D01*
X320498D01*
X322997Y144998D01*
Y142499D01*
X320498Y140000D01*
X315499D01*
X313000Y142499D01*
X327995Y154995D02*
Y140000D01*
X335493D01*
X337992Y142499D01*
Y152496D01*
X335493Y154995D01*
X327995D01*
X367982Y152496D02*
X365483Y154995D01*
X360485D01*
X357985Y152496D01*
Y142499D01*
X360485Y140000D01*
X365483D01*
X367982Y142499D01*
X372981Y140000D02*
Y149997D01*
X377979Y154995D01*
X382977Y149997D01*
Y140000D01*
Y147498D01*
X372981D01*
X387976Y140000D02*
Y154995D01*
X395473D01*
X397972Y152496D01*
Y147498D01*
X395473Y144998D01*
X387976D01*
X392974D02*
X397972Y140000D01*
X402971Y154995D02*
Y140000D01*
X410468D01*
X412968Y142499D01*
Y152496D01*
X410468Y154995D01*
X402971D01*
X175000Y141000D02*
Y155995D01*
X184997Y141000D01*
Y155995D01*
X197493D02*
X192494D01*
X189995Y153496D01*
Y143499D01*
X192494Y141000D01*
X197493D01*
X199992Y143499D01*
Y153496D01*
X197493Y155995D01*
X214987Y141000D02*
X204990D01*
X214987Y150997D01*
Y153496D01*
X212488Y155995D01*
X207489D01*
X204990Y153496D01*
X219985Y141000D02*
X229982Y150997D01*
X242478Y155995D02*
X237480D01*
X234981Y153496D01*
Y143499D01*
X237480Y141000D01*
X242478D01*
X244977Y143499D01*
Y153496D01*
X242478Y155995D01*
X249976Y153496D02*
X252475Y155995D01*
X257473D01*
X259972Y153496D01*
Y150997D01*
X257473Y148498D01*
X254974D01*
X257473D01*
X259972Y145998D01*
Y143499D01*
X257473Y141000D01*
X252475D01*
X249976Y143499D01*
X90000Y155995D02*
Y141000D01*
X97498D01*
X99997Y143499D01*
Y145998D01*
X97498Y148497D01*
X90000D01*
X97498D01*
X99997Y150997D01*
Y153496D01*
X97498Y155995D01*
X90000D01*
X104995Y141000D02*
Y150997D01*
X109993Y155995D01*
X114992Y150997D01*
Y141000D01*
Y148497D01*
X104995D01*
X119990Y155995D02*
X129987D01*
X124989D01*
Y141000D01*
X134985Y155995D02*
X144982D01*
X139984D01*
Y141000D01*
X142000Y540000D02*
X156995D01*
X142000Y530003D01*
X156995D01*
Y517507D02*
Y522506D01*
X154496Y525005D01*
X144499D01*
X142000Y522506D01*
Y517507D01*
X144499Y515008D01*
X154496D01*
X156995Y517507D01*
X142000Y500013D02*
Y510010D01*
X151997Y500013D01*
X154496D01*
X156995Y502512D01*
Y507510D01*
X154496Y510010D01*
X142000Y495015D02*
X151997Y485018D01*
X156995Y472522D02*
Y477520D01*
X154496Y480019D01*
X144499D01*
X142000Y477520D01*
Y472522D01*
X144499Y470023D01*
X154496D01*
X156995Y472522D01*
X154496Y465024D02*
X156995Y462525D01*
Y457527D01*
X154496Y455028D01*
X151997D01*
X149498Y457527D01*
Y460026D01*
Y457527D01*
X146998Y455028D01*
X144499D01*
X142000Y457527D01*
Y462525D01*
X144499Y465024D01*
X156995Y405000D02*
Y395003D01*
Y400002D01*
X142000D01*
X156995Y380008D02*
Y390005D01*
X142000D01*
Y380008D01*
X149498Y390005D02*
Y385006D01*
X142000Y375010D02*
X156995D01*
X151997Y370011D01*
X156995Y365013D01*
X142000D01*
Y360015D02*
X156995D01*
Y352517D01*
X154496Y350018D01*
X149498D01*
X146998Y352517D01*
Y360015D01*
X142000Y276000D02*
X156995D01*
Y268502D01*
X154496Y266003D01*
X149498D01*
X146998Y268502D01*
Y276000D01*
X142000Y261005D02*
X156995D01*
X151997Y256007D01*
X156995Y251008D01*
X142000D01*
Y236013D02*
Y246010D01*
X151997Y236013D01*
X154496D01*
X156995Y238512D01*
Y243510D01*
X154496Y246010D01*
X142000Y231015D02*
X144499D01*
Y228515D01*
X142000D01*
Y231015D01*
X156995Y208522D02*
Y218519D01*
X149498D01*
X151997Y213520D01*
Y211021D01*
X149498Y208522D01*
X144499D01*
X142000Y211021D01*
Y216019D01*
X144499Y218519D01*
D28*
X246316Y272581D02*
G03*
X233097Y314504I-21016J16419D01*
G01*
X217502Y314505D02*
G03*
X198731Y286676I7798J-25505D01*
G01*
Y286675D02*
G03*
X204284Y272580I26569J2324D01*
G01*
X247837Y286460D02*
X251849D01*
X222437D02*
X228163D01*
X198751D02*
X202763D01*
X204355Y272490D02*
X246245D01*
D29*
X246848Y178555D02*
X253935D01*
X246848Y223555D02*
X253935D01*
X246848Y187445D02*
X253935D01*
X246848Y232445D02*
X253935D01*
X258164Y618462D02*
X300836D01*
X258164Y565884D02*
X300836D01*
X258164Y397211D02*
X300836D01*
X258164Y449789D02*
X300836D01*
X258164Y492484D02*
X300836D01*
X258164Y545062D02*
X300836D01*
D30*
X473100Y535600D02*
Y548300D01*
X396900D02*
X473100D01*
X396900Y192700D02*
Y548300D01*
Y192700D02*
X574700D01*
Y548300D01*
X498500D02*
X574700D01*
X498500Y535600D02*
Y548300D01*
X473100Y535600D02*
X498500D01*
D31*
X500Y425000D02*
X131500D01*
Y322000D02*
Y425000D01*
X500Y322000D02*
Y425000D01*
Y322000D02*
X131500D01*
X450300Y182000D02*
X581300D01*
X450300Y110000D02*
Y182000D01*
X581300Y110000D02*
Y182000D01*
X450300Y110000D02*
X581300D01*
X166000Y1500D02*
Y132500D01*
X269000D01*
X166000Y1500D02*
X269000D01*
Y132500D01*
X500Y567000D02*
X131500D01*
Y434500D02*
Y567000D01*
X500Y434500D02*
Y567000D01*
Y434500D02*
X131500D01*
X278000Y1500D02*
Y132500D01*
X440500D01*
X278000Y1500D02*
X440500D01*
Y132500D01*
X700Y312000D02*
X131700D01*
Y179500D02*
Y312000D01*
X700Y179500D02*
Y312000D01*
Y179500D02*
X131700D01*
X156000Y700D02*
Y131700D01*
X84000D02*
X156000D01*
X84000Y700D02*
X156000D01*
X84000D02*
Y131700D01*
X156000Y297750D02*
Y308750D01*
X164000D01*
X187000Y297750D02*
Y308750D01*
X179000D02*
X187000D01*
X169500Y483500D02*
Y493497D01*
X174498D01*
X176164Y491831D01*
Y488498D01*
X174498Y486832D01*
X169500D01*
X172832D02*
X176164Y483500D01*
X186161D02*
X179497D01*
X186161Y490164D01*
Y491831D01*
X184495Y493497D01*
X181163D01*
X179497Y491831D01*
X189494D02*
X191160Y493497D01*
X194492D01*
X196158Y491831D01*
Y485166D01*
X194492Y483500D01*
X191160D01*
X189494Y485166D01*
Y491831D01*
X166000Y256997D02*
Y248666D01*
X167666Y247000D01*
X170998D01*
X172665Y248666D01*
Y256997D01*
X175997Y247000D02*
X179329D01*
X177663D01*
Y256997D01*
X175997Y255331D01*
X298664Y249331D02*
X296998Y250997D01*
X293666D01*
X292000Y249331D01*
Y242666D01*
X293666Y241000D01*
X296998D01*
X298664Y242666D01*
X301997Y249331D02*
X303663Y250997D01*
X306995D01*
X308661Y249331D01*
Y247665D01*
X306995Y245998D01*
X308661Y244332D01*
Y242666D01*
X306995Y241000D01*
X303663D01*
X301997Y242666D01*
Y244332D01*
X303663Y245998D01*
X301997Y247665D01*
Y249331D01*
X303663Y245998D02*
X306995D01*
X302665Y201331D02*
X300998Y202997D01*
X297666D01*
X296000Y201331D01*
Y194666D01*
X297666Y193000D01*
X300998D01*
X302665Y194666D01*
X305997Y202997D02*
X312661D01*
Y201331D01*
X305997Y194666D01*
Y193000D01*
X184622Y615871D02*
X182956Y617537D01*
X179624D01*
X177958Y615871D01*
Y609207D01*
X179624Y607540D01*
X182956D01*
X184622Y609207D01*
X187954Y607540D02*
X191287D01*
X189620D01*
Y617537D01*
X187954Y615871D01*
X184622Y587038D02*
X182956Y588704D01*
X179624D01*
X177958Y587038D01*
Y580373D01*
X179624Y578707D01*
X182956D01*
X184622Y580373D01*
X194619Y578707D02*
X187954D01*
X194619Y585371D01*
Y587038D01*
X192953Y588704D01*
X189620D01*
X187954Y587038D01*
X372758Y287288D02*
X371092Y288954D01*
X367760D01*
X366094Y287288D01*
Y280623D01*
X367760Y278957D01*
X371092D01*
X372758Y280623D01*
X376091Y287288D02*
X377757Y288954D01*
X381089D01*
X382755Y287288D01*
Y285622D01*
X381089Y283956D01*
X379423D01*
X381089D01*
X382755Y282290D01*
Y280623D01*
X381089Y278957D01*
X377757D01*
X376091Y280623D01*
X223498Y468736D02*
X221832Y470402D01*
X218500D01*
X216834Y468736D01*
Y462071D01*
X218500Y460405D01*
X221832D01*
X223498Y462071D01*
X231829Y460405D02*
Y470402D01*
X226830Y465403D01*
X233495D01*
X369188Y445852D02*
X367522Y447519D01*
X364189D01*
X362523Y445852D01*
Y439188D01*
X364189Y437522D01*
X367522D01*
X369188Y439188D01*
X379184Y447519D02*
X372520D01*
Y442520D01*
X375852Y444186D01*
X377518D01*
X379184Y442520D01*
Y439188D01*
X377518Y437522D01*
X374186D01*
X372520Y439188D01*
X179594Y565497D02*
X177928Y567163D01*
X174596D01*
X172930Y565497D01*
Y558832D01*
X174596Y557166D01*
X177928D01*
X179594Y558832D01*
X189591Y567163D02*
X186259Y565497D01*
X182927Y562164D01*
Y558832D01*
X184593Y557166D01*
X187925D01*
X189591Y558832D01*
Y560498D01*
X187925Y562164D01*
X182927D01*
X151000Y326997D02*
Y317000D01*
X155998D01*
X157664Y318666D01*
Y325331D01*
X155998Y326997D01*
X151000D01*
X160997Y317000D02*
X164329D01*
X162663D01*
Y326997D01*
X160997Y325331D01*
X223664Y323666D02*
Y330331D01*
X221998Y331997D01*
X218666D01*
X217000Y330331D01*
Y323666D01*
X218666Y322000D01*
X221998D01*
X220332Y325332D02*
X223664Y322000D01*
X221998D02*
X223664Y323666D01*
X226997Y322000D02*
X230329D01*
X228663D01*
Y331997D01*
X226997Y330331D01*
X368500Y247000D02*
Y256997D01*
X373498D01*
X375164Y255331D01*
Y251998D01*
X373498Y250332D01*
X368500D01*
X371832D02*
X375164Y247000D01*
X378497D02*
X381829D01*
X380163D01*
Y256997D01*
X378497Y255331D01*
X364000Y603382D02*
Y613379D01*
X368998D01*
X370664Y611712D01*
Y608380D01*
X368998Y606714D01*
X364000D01*
X367332D02*
X370664Y603382D01*
X380661D02*
X373997D01*
X380661Y610046D01*
Y611712D01*
X378995Y613379D01*
X375663D01*
X373997Y611712D01*
X363750Y579000D02*
Y588997D01*
X368748D01*
X370415Y587331D01*
Y583998D01*
X368748Y582332D01*
X363750D01*
X367082D02*
X370415Y579000D01*
X373747Y587331D02*
X375413Y588997D01*
X378745D01*
X380411Y587331D01*
Y585664D01*
X378745Y583998D01*
X377079D01*
X378745D01*
X380411Y582332D01*
Y580666D01*
X378745Y579000D01*
X375413D01*
X373747Y580666D01*
X366001Y331000D02*
Y340997D01*
X370999D01*
X372665Y339331D01*
Y335998D01*
X370999Y334332D01*
X366001D01*
X369333D02*
X372665Y331000D01*
X380996D02*
Y340997D01*
X375997Y335998D01*
X382662D01*
X364750Y630082D02*
Y640079D01*
X369748D01*
X371414Y638412D01*
Y635080D01*
X369748Y633414D01*
X364750D01*
X368082D02*
X371414Y630082D01*
X381411Y640079D02*
X374747D01*
Y635080D01*
X378079Y636746D01*
X379745D01*
X381411Y635080D01*
Y631748D01*
X379745Y630082D01*
X376413D01*
X374747Y631748D01*
X366000Y304291D02*
Y314287D01*
X370999D01*
X372665Y312621D01*
Y309289D01*
X370999Y307623D01*
X366000D01*
X369333D02*
X372665Y304291D01*
X382662Y314287D02*
X379329Y312621D01*
X375997Y309289D01*
Y305957D01*
X377663Y304291D01*
X380996D01*
X382662Y305957D01*
Y307623D01*
X380996Y309289D01*
X375997D01*
X177958Y632957D02*
Y642954D01*
X182956D01*
X184622Y641288D01*
Y637955D01*
X182956Y636289D01*
X177958D01*
X181290D02*
X184622Y632957D01*
X187954Y642954D02*
X194619D01*
Y641288D01*
X187954Y634623D01*
Y632957D01*
X365750Y383768D02*
Y393765D01*
X370749D01*
X372415Y392099D01*
Y388767D01*
X370749Y387100D01*
X365750D01*
X369082D02*
X372415Y383768D01*
X375747Y392099D02*
X377413Y393765D01*
X380745D01*
X382411Y392099D01*
Y390433D01*
X380745Y388767D01*
X382411Y387100D01*
Y385434D01*
X380745Y383768D01*
X377413D01*
X375747Y385434D01*
Y387100D01*
X377413Y388767D01*
X375747Y390433D01*
Y392099D01*
X377413Y388767D02*
X380745D01*
X189000Y460405D02*
Y470402D01*
X193998D01*
X195665Y468736D01*
Y465404D01*
X193998Y463737D01*
X189000D01*
X192332D02*
X195665Y460405D01*
X198997Y462071D02*
X200663Y460405D01*
X203995D01*
X205661Y462071D01*
Y468736D01*
X203995Y470402D01*
X200663D01*
X198997Y468736D01*
Y467070D01*
X200663Y465404D01*
X205661D01*
X365750Y357537D02*
Y367533D01*
X370749D01*
X372415Y365867D01*
Y362535D01*
X370749Y360869D01*
X365750D01*
X369082D02*
X372415Y357537D01*
X375747D02*
X379079D01*
X377413D01*
Y367533D01*
X375747Y365867D01*
X384078D02*
X385744Y367533D01*
X389076D01*
X390742Y365867D01*
Y359203D01*
X389076Y357537D01*
X385744D01*
X384078Y359203D01*
Y365867D01*
X365750Y409810D02*
Y419807D01*
X370749D01*
X372415Y418141D01*
Y414809D01*
X370749Y413143D01*
X365750D01*
X369083D02*
X372415Y409810D01*
X375747D02*
X379080D01*
X377413D01*
Y419807D01*
X375747Y418141D01*
X384078Y409810D02*
X387410D01*
X385744D01*
Y419807D01*
X384078Y418141D01*
X174750Y409002D02*
Y418999D01*
X179748D01*
X181415Y417333D01*
Y414001D01*
X179748Y412335D01*
X174750D01*
X178082D02*
X181415Y409002D01*
X184747D02*
X188079D01*
X186413D01*
Y418999D01*
X184747Y417333D01*
X199742Y409002D02*
X193077D01*
X199742Y415667D01*
Y417333D01*
X198076Y418999D01*
X194744D01*
X193077Y417333D01*
X174768Y337651D02*
Y347648D01*
X179767D01*
X181433Y345982D01*
Y342649D01*
X179767Y340983D01*
X174768D01*
X178101D02*
X181433Y337651D01*
X184765D02*
X188097D01*
X186431D01*
Y347648D01*
X184765Y345982D01*
X193096D02*
X194762Y347648D01*
X198094D01*
X199760Y345982D01*
Y344316D01*
X198094Y342649D01*
X196428D01*
X198094D01*
X199760Y340983D01*
Y339317D01*
X198094Y337651D01*
X194762D01*
X193096Y339317D01*
X363000Y495138D02*
Y505135D01*
X367999D01*
X369665Y503469D01*
Y500136D01*
X367999Y498470D01*
X363000D01*
X366332D02*
X369665Y495138D01*
X372997D02*
X376329D01*
X374663D01*
Y505135D01*
X372997Y503469D01*
X386326Y495138D02*
Y505135D01*
X381328Y500136D01*
X387992D01*
X175232Y387609D02*
Y397605D01*
X180230D01*
X181896Y395939D01*
Y392607D01*
X180230Y390941D01*
X175232D01*
X178564D02*
X181896Y387609D01*
X185228D02*
X188561D01*
X186894D01*
Y397605D01*
X185228Y395939D01*
X200224Y397605D02*
X193559D01*
Y392607D01*
X196891Y394273D01*
X198557D01*
X200224Y392607D01*
Y389275D01*
X198557Y387609D01*
X195225D01*
X193559Y389275D01*
X174768Y363694D02*
Y373690D01*
X179767D01*
X181433Y372024D01*
Y368692D01*
X179767Y367026D01*
X174768D01*
X178101D02*
X181433Y363694D01*
X184765D02*
X188097D01*
X186431D01*
Y373690D01*
X184765Y372024D01*
X199760Y373690D02*
X196428Y372024D01*
X193096Y368692D01*
Y365360D01*
X194762Y363694D01*
X198094D01*
X199760Y365360D01*
Y367026D01*
X198094Y368692D01*
X193096D01*
X363000Y460250D02*
Y470247D01*
X367999D01*
X369665Y468580D01*
Y465248D01*
X367999Y463582D01*
X363000D01*
X366332D02*
X369665Y460250D01*
X372997D02*
X376329D01*
X374663D01*
Y470247D01*
X372997Y468580D01*
X381328Y470247D02*
X387992D01*
Y468580D01*
X381328Y461916D01*
Y460250D01*
X172000Y508903D02*
Y518899D01*
X176998D01*
X178664Y517233D01*
Y513901D01*
X176998Y512235D01*
X172000D01*
X175332D02*
X178664Y508903D01*
X181997D02*
X185329D01*
X183663D01*
Y518899D01*
X181997Y517233D01*
X190327D02*
X191994Y518899D01*
X195326D01*
X196992Y517233D01*
Y515567D01*
X195326Y513901D01*
X196992Y512235D01*
Y510569D01*
X195326Y508903D01*
X191994D01*
X190327Y510569D01*
Y512235D01*
X191994Y513901D01*
X190327Y515567D01*
Y517233D01*
X191994Y513901D02*
X195326D01*
X363000Y549213D02*
Y559209D01*
X367999D01*
X369665Y557543D01*
Y554211D01*
X367999Y552545D01*
X363000D01*
X366332D02*
X369665Y549213D01*
X372997D02*
X376329D01*
X374663D01*
Y559209D01*
X372997Y557543D01*
X381328Y550879D02*
X382994Y549213D01*
X386326D01*
X387992Y550879D01*
Y557543D01*
X386326Y559209D01*
X382994D01*
X381328Y557543D01*
Y555877D01*
X382994Y554211D01*
X387992D01*
X172750Y532515D02*
Y542512D01*
X177749D01*
X179415Y540846D01*
Y537514D01*
X177749Y535848D01*
X172750D01*
X176082D02*
X179415Y532515D01*
X189412D02*
X182747D01*
X189412Y539180D01*
Y540846D01*
X187745Y542512D01*
X184413D01*
X182747Y540846D01*
X192744Y532515D02*
X196076D01*
X194410D01*
Y542512D01*
X192744Y540846D01*
X363000Y522675D02*
Y532672D01*
X367999D01*
X369665Y531006D01*
Y527674D01*
X367999Y526007D01*
X363000D01*
X366332D02*
X369665Y522675D01*
X379661D02*
X372997D01*
X379661Y529340D01*
Y531006D01*
X377995Y532672D01*
X374663D01*
X372997Y531006D01*
X389658Y522675D02*
X382994D01*
X389658Y529340D01*
Y531006D01*
X387992Y532672D01*
X384660D01*
X382994Y531006D01*
X271000Y633997D02*
Y625666D01*
X272666Y624000D01*
X275998D01*
X277665Y625666D01*
Y633997D01*
X287661Y624000D02*
X280997D01*
X287661Y630664D01*
Y632331D01*
X285995Y633997D01*
X282663D01*
X280997Y632331D01*
X272000Y465997D02*
Y457666D01*
X273666Y456000D01*
X276998D01*
X278664Y457666D01*
Y465997D01*
X281997Y464331D02*
X283663Y465997D01*
X286995D01*
X288661Y464331D01*
Y462664D01*
X286995Y460998D01*
X285329D01*
X286995D01*
X288661Y459332D01*
Y457666D01*
X286995Y456000D01*
X283663D01*
X281997Y457666D01*
X272000Y559997D02*
Y551666D01*
X273666Y550000D01*
X276998D01*
X278664Y551666D01*
Y559997D01*
X286995Y550000D02*
Y559997D01*
X281997Y554998D01*
X288661D01*
X398551Y579506D02*
Y571175D01*
X400217Y569509D01*
X403549D01*
X405215Y571175D01*
Y579506D01*
X415212D02*
X408548D01*
Y574507D01*
X411880Y576174D01*
X413546D01*
X415212Y574507D01*
Y571175D01*
X413546Y569509D01*
X410214D01*
X408548Y571175D01*
M02*
