M48
;Layer_Color=9474304
;FILE_FORMAT=4:4
METRIC,LZ
;TYPE=PLATED
T1F00S00C0.4000
T2F00S00C0.8000
T3F00S00C0.9652
T4F00S00C1.0200
T5F00S00C2.8450
T6F00S00C3.0000
T7F00S00C7.0000
%
T01
X00321Y0018175
Y00228
X00308Y00263
X00366Y00267
X00372Y00361
X0033
X00341Y004
X00285Y00416
X0028525Y0043025
X00285Y004425
X00252703Y00390297
X001985Y0039075
X00187Y0041225
X0021Y00355
X0015Y00289
X00196Y00537
X00191Y00591
X001965Y0063675
X00271Y00598
X00322Y00611
X00365Y00635
X0036425Y00527
X003625Y0048325
X0033875Y00489
X00237Y0049975
T02
X001465Y001815
X002126Y00289
X00238
X002253Y0030805
T03
X004096Y002054
X00435
X004604
X004858
X005112
X005366
X00562
Y002308
X004096
Y002562
Y002816
Y00307
Y003324
Y003578
Y003832
Y004086
Y00434
Y004594
Y004848
Y005102
Y005356
X005366Y005102
X00562
Y005356
Y004848
Y004594
X005366
Y00434
Y004086
X00562
Y00434
Y003832
Y003578
Y003324
Y00307
Y002816
Y002562
T04
X00404Y00091
Y00121
X004618Y00146
X004918
X00374Y00121
Y00091
X00344
X00314
Y00121
X00344
X00232
X00202
Y00091
X00232
X0012Y000902
Y001202
X001202Y00216
X000902
Y00246
X001202
Y00276
X000902
X0009Y00359
Y00389
X0012
Y00359
Y00471
Y00501
Y00531
X0009
Y00501
Y00471
T05
X00534Y00049
X00045Y00049
Y00609
X00534
T06
X00535Y00146
X00383Y000478
X00336
X00217
X0012Y00047
X00047Y00246
X000468Y00374
Y00501
T07
X00291Y00326
M30
