G04 Layer_Physical_Order=2*
G04 Layer_Color=16711680*
%FSLAX44Y44*%
%MOMM*%
G71*
G01*
G75*
%ADD19C,0.2500*%
%ADD21C,1.5240*%
%ADD22C,5.5000*%
%ADD23C,1.4478*%
%ADD24C,1.5000*%
%ADD25C,1.3080*%
%ADD26C,0.6000*%
%ADD27C,1.2000*%
G36*
X280320Y444645D02*
X280283Y444416D01*
X279902Y442500D01*
X280290Y440549D01*
X281395Y438895D01*
X283049Y437790D01*
X285000Y437402D01*
X286951Y437790D01*
X288605Y438895D01*
X288799Y439186D01*
X379111D01*
X379482Y438939D01*
X380285Y438779D01*
X400407Y418657D01*
X401482Y417939D01*
X402750Y417686D01*
X404200D01*
X404610Y416416D01*
X403010Y415189D01*
X401530Y413259D01*
X400599Y411012D01*
X400281Y408600D01*
X400599Y406188D01*
X401530Y403940D01*
X403010Y402010D01*
X404940Y400530D01*
X406017Y400084D01*
X405764Y398814D01*
X400873D01*
X367093Y432593D01*
X366018Y433311D01*
X364750Y433564D01*
X289049D01*
X288855Y433855D01*
X287201Y434960D01*
X285250Y435348D01*
X283299Y434960D01*
X281645Y433855D01*
X280540Y432201D01*
X280152Y430250D01*
X280540Y428299D01*
X281645Y426645D01*
X283299Y425540D01*
X285250Y425152D01*
X287201Y425540D01*
X288855Y426645D01*
X289049Y426936D01*
X363377D01*
X397157Y393157D01*
X398232Y392439D01*
X399500Y392186D01*
X404048D01*
X404479Y390916D01*
X403010Y389789D01*
X401530Y387859D01*
X400599Y385612D01*
X400281Y383200D01*
X400599Y380788D01*
X401530Y378540D01*
X403010Y376610D01*
X404940Y375130D01*
X407188Y374199D01*
X409600Y373881D01*
X412012Y374199D01*
X414259Y375130D01*
X416189Y376610D01*
X417670Y378540D01*
X418601Y380788D01*
X418919Y383200D01*
X418601Y385612D01*
X417670Y387859D01*
X416189Y389789D01*
X414720Y390916D01*
X415151Y392186D01*
X419128D01*
X538436Y272878D01*
Y234000D01*
X538689Y232732D01*
X539407Y231657D01*
X542607Y228457D01*
X543682Y227738D01*
X544950Y227486D01*
X553372D01*
X553930Y226140D01*
X555410Y224210D01*
X557341Y222730D01*
X557964Y222471D01*
X558192Y221234D01*
X557354Y220314D01*
X410462D01*
X410379Y221584D01*
X412012Y221799D01*
X414259Y222730D01*
X416189Y224210D01*
X417670Y226140D01*
X418601Y228388D01*
X418919Y230800D01*
X418601Y233212D01*
X417670Y235459D01*
X416189Y237389D01*
X414259Y238870D01*
X412012Y239801D01*
X409600Y240119D01*
X407188Y239801D01*
X404940Y238870D01*
X403010Y237389D01*
X401530Y235459D01*
X400599Y233212D01*
X400281Y230800D01*
X400599Y228388D01*
X401530Y226140D01*
X403010Y224210D01*
X404940Y222730D01*
X407188Y221799D01*
X408821Y221584D01*
X408737Y220314D01*
X390373D01*
X369314Y241373D01*
Y263201D01*
X369605Y263395D01*
X370710Y265049D01*
X371098Y267000D01*
X370710Y268951D01*
X369605Y270605D01*
X367951Y271710D01*
X366000Y272098D01*
X364049Y271710D01*
X362395Y270605D01*
X361290Y268951D01*
X360902Y267000D01*
X361290Y265049D01*
X362395Y263395D01*
X362686Y263201D01*
Y240000D01*
X362939Y238732D01*
X363657Y237657D01*
X386657Y214657D01*
X387732Y213939D01*
X389000Y213686D01*
X403136D01*
X403567Y212416D01*
X403010Y211989D01*
X401530Y210059D01*
X400972Y208713D01*
X388400D01*
X387132Y208461D01*
X386057Y207743D01*
X327657Y149343D01*
X326939Y148268D01*
X326686Y147000D01*
Y97373D01*
X323928Y94615D01*
X322683Y94862D01*
X322298Y95791D01*
X320775Y97776D01*
X318791Y99298D01*
X316480Y100256D01*
X314000Y100582D01*
X311520Y100256D01*
X309209Y99298D01*
X307224Y97776D01*
X305702Y95791D01*
X304744Y93480D01*
X304418Y91000D01*
X304744Y88520D01*
X305702Y86209D01*
X307224Y84225D01*
X309209Y82702D01*
X311520Y81745D01*
X312744Y81584D01*
X312661Y80314D01*
X299373D01*
X273343Y106343D01*
X272268Y107061D01*
X271000Y107314D01*
X221373D01*
X220314Y108372D01*
Y273000D01*
X220061Y274268D01*
X219343Y275343D01*
X215914Y278773D01*
Y281129D01*
X216907Y281541D01*
X218691Y282909D01*
X220060Y284693D01*
X220920Y286771D01*
X221214Y289000D01*
X220920Y291229D01*
X220060Y293307D01*
X218691Y295091D01*
X216907Y296460D01*
X214829Y297320D01*
X212600Y297614D01*
X210371Y297320D01*
X208293Y296460D01*
X206509Y295091D01*
X205140Y293307D01*
X204280Y291229D01*
X203986Y289000D01*
X204280Y286771D01*
X205140Y284693D01*
X206509Y282909D01*
X208293Y281541D01*
X209286Y281129D01*
Y277400D01*
X209539Y276132D01*
X210257Y275057D01*
X213686Y271627D01*
Y107000D01*
X213939Y105732D01*
X214657Y104657D01*
X217657Y101657D01*
X218732Y100939D01*
X220000Y100686D01*
X227241D01*
X227494Y99416D01*
X227209Y99298D01*
X225225Y97776D01*
X223702Y95791D01*
X222745Y93480D01*
X222418Y91000D01*
X222745Y88520D01*
X223702Y86209D01*
X225225Y84225D01*
X227209Y82702D01*
X228686Y82090D01*
Y80873D01*
X228127Y80314D01*
X203339D01*
X203256Y81584D01*
X204480Y81745D01*
X206791Y82702D01*
X208776Y84225D01*
X210298Y86209D01*
X211255Y88520D01*
X211582Y91000D01*
X211255Y93480D01*
X210298Y95791D01*
X208776Y97776D01*
X206791Y99298D01*
X204480Y100256D01*
X202000Y100582D01*
X199520Y100256D01*
X197209Y99298D01*
X195225Y97776D01*
X193702Y95791D01*
X193552Y95430D01*
X192054Y95132D01*
X190314Y96873D01*
Y408451D01*
X190605Y408645D01*
X191710Y410299D01*
X192098Y412250D01*
X191710Y414201D01*
X190605Y415855D01*
X188951Y416960D01*
X187000Y417348D01*
X185049Y416960D01*
X183395Y415855D01*
X182290Y414201D01*
X181902Y412250D01*
X182290Y410299D01*
X183395Y408645D01*
X183686Y408451D01*
Y95500D01*
X183939Y94232D01*
X184657Y93157D01*
X189157Y88657D01*
X190232Y87939D01*
X191500Y87687D01*
X193090D01*
X193702Y86209D01*
X195225Y84225D01*
X197209Y82702D01*
X199520Y81745D01*
X200744Y81584D01*
X200661Y80314D01*
X189373D01*
X109314Y160373D01*
Y357661D01*
X110584Y357744D01*
X110745Y356520D01*
X111702Y354209D01*
X113225Y352225D01*
X115209Y350702D01*
X117520Y349745D01*
X120000Y349418D01*
X122480Y349745D01*
X124791Y350702D01*
X126776Y352225D01*
X128298Y354209D01*
X129256Y356520D01*
X129582Y359000D01*
X129256Y361480D01*
X128298Y363791D01*
X126776Y365776D01*
X124791Y367298D01*
X122480Y368256D01*
X120000Y368582D01*
X117520Y368256D01*
X115209Y367298D01*
X113225Y365776D01*
X111702Y363791D01*
X110745Y361480D01*
X110584Y360256D01*
X109314Y360340D01*
Y387661D01*
X110584Y387744D01*
X110745Y386520D01*
X111702Y384209D01*
X113225Y382225D01*
X115209Y380702D01*
X117520Y379745D01*
X120000Y379418D01*
X122480Y379745D01*
X124791Y380702D01*
X126776Y382225D01*
X128298Y384209D01*
X129256Y386520D01*
X129582Y389000D01*
X129256Y391480D01*
X128298Y393791D01*
X126776Y395776D01*
X124791Y397298D01*
X123314Y397910D01*
Y401628D01*
X167372Y445686D01*
X279597D01*
X280320Y444645D01*
D02*
G37*
G36*
X194929Y643000D02*
X195862Y642186D01*
X195862Y642186D01*
X195862D01*
X195907Y641730D01*
X195869Y641722D01*
X194549Y641460D01*
X192895Y640355D01*
X191790Y638701D01*
X191651Y638000D01*
X201349D01*
X201210Y638701D01*
X200105Y640355D01*
X198451Y641460D01*
X197131Y641722D01*
X197093Y641730D01*
X197138Y642186D01*
X197138D01*
X197138Y642186D01*
X198071Y643000D01*
X571000Y643000D01*
Y541134D01*
X569730Y540702D01*
X568589Y542189D01*
X566659Y543670D01*
X564412Y544601D01*
X562000Y544919D01*
X559588Y544601D01*
X557341Y543670D01*
X555410Y542189D01*
X553930Y540259D01*
X552999Y538012D01*
X552681Y535600D01*
X552999Y533188D01*
X553930Y530940D01*
X555410Y529011D01*
X557341Y527530D01*
X559588Y526599D01*
X562000Y526281D01*
X564412Y526599D01*
X566659Y527530D01*
X568589Y529011D01*
X569730Y530497D01*
X571000Y530066D01*
Y515734D01*
X569730Y515302D01*
X568589Y516789D01*
X566659Y518270D01*
X564412Y519201D01*
X562000Y519519D01*
X559588Y519201D01*
X557341Y518270D01*
X555410Y516789D01*
X553930Y514859D01*
X552999Y512612D01*
X552681Y510200D01*
X552999Y507788D01*
X553930Y505540D01*
X555410Y503610D01*
X557341Y502130D01*
X559588Y501199D01*
X562000Y500881D01*
X564412Y501199D01*
X566659Y502130D01*
X568589Y503610D01*
X569730Y505097D01*
X571000Y504666D01*
Y490334D01*
X569730Y489902D01*
X568589Y491389D01*
X566659Y492870D01*
X564412Y493801D01*
X562000Y494118D01*
X559588Y493801D01*
X557341Y492870D01*
X555410Y491389D01*
X553930Y489459D01*
X552999Y487212D01*
X552681Y484800D01*
X552999Y482388D01*
X553930Y480140D01*
X555410Y478210D01*
X557341Y476730D01*
X557693Y476584D01*
X557440Y475314D01*
X414160D01*
X413907Y476584D01*
X414259Y476730D01*
X416189Y478210D01*
X417670Y480140D01*
X418601Y482388D01*
X418919Y484800D01*
X418601Y487212D01*
X417670Y489459D01*
X416189Y491389D01*
X414259Y492870D01*
X412012Y493801D01*
X409600Y494118D01*
X407188Y493801D01*
X404940Y492870D01*
X403010Y491389D01*
X401530Y489459D01*
X400599Y487212D01*
X400281Y484800D01*
X400599Y482388D01*
X401530Y480140D01*
X403010Y478210D01*
X404940Y476730D01*
X405293Y476584D01*
X405040Y475314D01*
X400373D01*
X390093Y485593D01*
X389018Y486311D01*
X387750Y486564D01*
X366299D01*
X366105Y486855D01*
X364451Y487960D01*
X362500Y488348D01*
X360549Y487960D01*
X358895Y486855D01*
X357790Y485201D01*
X357402Y483250D01*
X357790Y481299D01*
X358895Y479645D01*
X360549Y478540D01*
X362500Y478152D01*
X364451Y478540D01*
X366105Y479645D01*
X366299Y479936D01*
X386377D01*
X396657Y469657D01*
X397732Y468939D01*
X399000Y468686D01*
X404295D01*
X404878Y467549D01*
X404870Y467416D01*
X403010Y465989D01*
X401530Y464059D01*
X400599Y461812D01*
X400281Y459400D01*
X400599Y456988D01*
X401530Y454740D01*
X402417Y453584D01*
X401791Y452314D01*
X335296D01*
X334770Y453584D01*
X341093Y459907D01*
X341811Y460982D01*
X342064Y462250D01*
X342064Y462251D01*
Y485201D01*
X342355Y485395D01*
X343460Y487049D01*
X343848Y489000D01*
X343460Y490951D01*
X342355Y492605D01*
X340701Y493710D01*
X338750Y494098D01*
X336799Y493710D01*
X335145Y492605D01*
X334040Y490951D01*
X333652Y489000D01*
X334040Y487049D01*
X335145Y485395D01*
X335436Y485201D01*
Y463622D01*
X330128Y458314D01*
X162000D01*
X160732Y458061D01*
X159657Y457343D01*
X103657Y401343D01*
X102939Y400268D01*
X102686Y399000D01*
Y159000D01*
X102939Y157732D01*
X103657Y156657D01*
X185657Y74657D01*
X186732Y73939D01*
X188000Y73686D01*
X229500D01*
X230768Y73939D01*
X231843Y74657D01*
X234343Y77157D01*
X234343Y77157D01*
X235061Y78232D01*
X235314Y79500D01*
Y82090D01*
X236791Y82702D01*
X238776Y84225D01*
X240298Y86209D01*
X241255Y88520D01*
X241582Y91000D01*
X241255Y93480D01*
X240298Y95791D01*
X238776Y97776D01*
X236791Y99298D01*
X236506Y99416D01*
X236759Y100686D01*
X269627D01*
X295657Y74657D01*
X296732Y73939D01*
X298000Y73686D01*
X414000D01*
X415268Y73939D01*
X416343Y74657D01*
X464143Y122457D01*
X464861Y123532D01*
X465114Y124800D01*
Y137090D01*
X466591Y137702D01*
X468575Y139224D01*
X470098Y141209D01*
X471055Y143520D01*
X471382Y146000D01*
X471055Y148480D01*
X470098Y150791D01*
X468575Y152775D01*
X466591Y154298D01*
X464280Y155255D01*
X461800Y155582D01*
X459320Y155255D01*
X457009Y154298D01*
X455024Y152775D01*
X453502Y150791D01*
X452545Y148480D01*
X452218Y146000D01*
X452545Y143520D01*
X453502Y141209D01*
X455024Y139224D01*
X457009Y137702D01*
X458486Y137090D01*
Y126173D01*
X412627Y80314D01*
X405339D01*
X405256Y81584D01*
X406480Y81745D01*
X408791Y82702D01*
X410776Y84225D01*
X412298Y86209D01*
X413256Y88520D01*
X413582Y91000D01*
X413256Y93480D01*
X412298Y95791D01*
X410776Y97776D01*
X408791Y99298D01*
X406480Y100256D01*
X404000Y100582D01*
X401520Y100256D01*
X399209Y99298D01*
X397225Y97776D01*
X395702Y95791D01*
X394745Y93480D01*
X394418Y91000D01*
X394745Y88520D01*
X395702Y86209D01*
X397225Y84225D01*
X399209Y82702D01*
X401520Y81745D01*
X402744Y81584D01*
X402661Y80314D01*
X375340D01*
X375256Y81584D01*
X376480Y81745D01*
X378791Y82702D01*
X380776Y84225D01*
X382298Y86209D01*
X383256Y88520D01*
X383582Y91000D01*
X383256Y93480D01*
X382298Y95791D01*
X380776Y97776D01*
X378791Y99298D01*
X376480Y100256D01*
X374000Y100582D01*
X371520Y100256D01*
X369209Y99298D01*
X367225Y97776D01*
X365702Y95791D01*
X364745Y93480D01*
X364418Y91000D01*
X364745Y88520D01*
X365702Y86209D01*
X367225Y84225D01*
X369209Y82702D01*
X371520Y81745D01*
X372744Y81584D01*
X372661Y80314D01*
X345339D01*
X345256Y81584D01*
X346480Y81745D01*
X348791Y82702D01*
X350775Y84225D01*
X352298Y86209D01*
X353255Y88520D01*
X353582Y91000D01*
X353255Y93480D01*
X352298Y95791D01*
X350775Y97776D01*
X348791Y99298D01*
X346480Y100256D01*
X344000Y100582D01*
X341520Y100256D01*
X339209Y99298D01*
X337224Y97776D01*
X335702Y95791D01*
X334744Y93480D01*
X334418Y91000D01*
X334744Y88520D01*
X335702Y86209D01*
X337224Y84225D01*
X339209Y82702D01*
X341520Y81745D01*
X342744Y81584D01*
X342660Y80314D01*
X315339D01*
X315256Y81584D01*
X316480Y81745D01*
X318791Y82702D01*
X320775Y84225D01*
X322298Y86209D01*
X322496Y86686D01*
X324000D01*
X325268Y86939D01*
X326343Y87657D01*
X332343Y93657D01*
X333061Y94732D01*
X333314Y96000D01*
Y119657D01*
X334584Y119741D01*
X334744Y118520D01*
X335702Y116209D01*
X337224Y114225D01*
X339209Y112702D01*
X341520Y111745D01*
X344000Y111418D01*
X346480Y111745D01*
X348791Y112702D01*
X350775Y114225D01*
X352298Y116209D01*
X353255Y118520D01*
X353582Y121000D01*
X353255Y123480D01*
X352298Y125791D01*
X350775Y127776D01*
X348791Y129298D01*
X346480Y130256D01*
X344000Y130582D01*
X341520Y130256D01*
X339209Y129298D01*
X337224Y127776D01*
X335702Y125791D01*
X334744Y123480D01*
X334584Y122260D01*
X333314Y122343D01*
Y145627D01*
X389772Y202086D01*
X400972D01*
X401530Y200740D01*
X403010Y198811D01*
X404940Y197330D01*
X407188Y196399D01*
X409600Y196081D01*
X412012Y196399D01*
X414259Y197330D01*
X416189Y198811D01*
X417670Y200740D01*
X418601Y202988D01*
X418919Y205400D01*
X418601Y207812D01*
X417670Y210059D01*
X416189Y211989D01*
X415633Y212416D01*
X416064Y213686D01*
X428536D01*
X428967Y212416D01*
X428410Y211989D01*
X426930Y210059D01*
X425999Y207812D01*
X425681Y205400D01*
X425999Y202988D01*
X426930Y200740D01*
X428410Y198811D01*
X430340Y197330D01*
X432588Y196399D01*
X435000Y196081D01*
X437412Y196399D01*
X439659Y197330D01*
X441589Y198811D01*
X443070Y200740D01*
X444001Y202988D01*
X444319Y205400D01*
X444001Y207812D01*
X443070Y210059D01*
X441589Y211989D01*
X441032Y212416D01*
X441464Y213686D01*
X453936D01*
X454367Y212416D01*
X453811Y211989D01*
X452330Y210059D01*
X451399Y207812D01*
X451081Y205400D01*
X451399Y202988D01*
X452330Y200740D01*
X453811Y198811D01*
X455741Y197330D01*
X457988Y196399D01*
X460400Y196081D01*
X462812Y196399D01*
X465059Y197330D01*
X466989Y198811D01*
X468470Y200740D01*
X469401Y202988D01*
X469719Y205400D01*
X469401Y207812D01*
X468470Y210059D01*
X466989Y211989D01*
X466432Y212416D01*
X466864Y213686D01*
X479336D01*
X479767Y212416D01*
X479211Y211989D01*
X477730Y210059D01*
X476799Y207812D01*
X476481Y205400D01*
X476799Y202988D01*
X477730Y200740D01*
X479211Y198811D01*
X481141Y197330D01*
X483388Y196399D01*
X485800Y196081D01*
X488212Y196399D01*
X490459Y197330D01*
X492389Y198811D01*
X493870Y200740D01*
X494801Y202988D01*
X495119Y205400D01*
X494801Y207812D01*
X493870Y210059D01*
X492389Y211989D01*
X491833Y212416D01*
X492264Y213686D01*
X504736D01*
X505167Y212416D01*
X504610Y211989D01*
X503130Y210059D01*
X502199Y207812D01*
X501881Y205400D01*
X502199Y202988D01*
X503130Y200740D01*
X504610Y198811D01*
X506540Y197330D01*
X508788Y196399D01*
X511200Y196081D01*
X513612Y196399D01*
X515859Y197330D01*
X517789Y198811D01*
X519270Y200740D01*
X520201Y202988D01*
X520519Y205400D01*
X520201Y207812D01*
X519270Y210059D01*
X517789Y211989D01*
X517233Y212416D01*
X517664Y213686D01*
X530136D01*
X530567Y212416D01*
X530010Y211989D01*
X528530Y210059D01*
X527599Y207812D01*
X527281Y205400D01*
X527599Y202988D01*
X528530Y200740D01*
X530010Y198811D01*
X531940Y197330D01*
X534188Y196399D01*
X536600Y196081D01*
X539012Y196399D01*
X541259Y197330D01*
X543189Y198811D01*
X544670Y200740D01*
X545601Y202988D01*
X545919Y205400D01*
X545601Y207812D01*
X544670Y210059D01*
X543189Y211989D01*
X542632Y212416D01*
X543064Y213686D01*
X555536D01*
X555967Y212416D01*
X555410Y211989D01*
X553930Y210059D01*
X552999Y207812D01*
X552681Y205400D01*
X552999Y202988D01*
X553930Y200740D01*
X555410Y198811D01*
X557341Y197330D01*
X559588Y196399D01*
X562000Y196081D01*
X564412Y196399D01*
X566659Y197330D01*
X568589Y198811D01*
X569730Y200297D01*
X571000Y199866D01*
Y12000D01*
X9000D01*
X9000Y643000D01*
X194929D01*
D02*
G37*
%LPC*%
G36*
X322250Y232849D02*
Y229250D01*
X325849D01*
X325710Y229951D01*
X324605Y231605D01*
X322951Y232710D01*
X322250Y232849D01*
D02*
G37*
G36*
X319750D02*
X319049Y232710D01*
X317395Y231605D01*
X316290Y229951D01*
X316151Y229250D01*
X319750D01*
Y232849D01*
D02*
G37*
G36*
X129617Y244750D02*
X121450D01*
Y236583D01*
X122680Y236745D01*
X124991Y237702D01*
X126975Y239225D01*
X128498Y241209D01*
X129455Y243520D01*
X129617Y244750D01*
D02*
G37*
G36*
X118950D02*
X110782D01*
X110944Y243520D01*
X111902Y241209D01*
X113424Y239225D01*
X115409Y237702D01*
X117720Y236745D01*
X118950Y236583D01*
Y244750D01*
D02*
G37*
G36*
X322250Y186599D02*
Y183000D01*
X325849D01*
X325710Y183701D01*
X324605Y185355D01*
X322951Y186460D01*
X322250Y186599D01*
D02*
G37*
G36*
X319750D02*
X319049Y186460D01*
X317395Y185355D01*
X316290Y183701D01*
X316151Y183000D01*
X319750D01*
Y186599D01*
D02*
G37*
G36*
X147750Y189404D02*
Y182750D01*
X154404D01*
X154294Y183588D01*
X153488Y185534D01*
X152206Y187206D01*
X150534Y188488D01*
X148588Y189294D01*
X147750Y189404D01*
D02*
G37*
G36*
X325849Y226750D02*
X322250D01*
Y223151D01*
X322951Y223290D01*
X324605Y224395D01*
X325710Y226049D01*
X325849Y226750D01*
D02*
G37*
G36*
X319750D02*
X316151D01*
X316290Y226049D01*
X317395Y224395D01*
X319049Y223290D01*
X319750Y223151D01*
Y226750D01*
D02*
G37*
G36*
X120200Y225582D02*
X117720Y225255D01*
X115409Y224298D01*
X113424Y222775D01*
X111902Y220791D01*
X110944Y218480D01*
X110618Y216000D01*
X110944Y213520D01*
X111902Y211209D01*
X113424Y209224D01*
X115409Y207701D01*
X117720Y206744D01*
X120200Y206418D01*
X122680Y206744D01*
X124991Y207701D01*
X126975Y209224D01*
X128498Y211209D01*
X129455Y213520D01*
X129782Y216000D01*
X129455Y218480D01*
X128498Y220791D01*
X126975Y222775D01*
X124991Y224298D01*
X122680Y225255D01*
X120200Y225582D01*
D02*
G37*
G36*
X148750Y287750D02*
X145151D01*
X145290Y287049D01*
X146395Y285395D01*
X148049Y284290D01*
X148750Y284151D01*
Y287750D01*
D02*
G37*
G36*
X154849D02*
X151250D01*
Y284151D01*
X151951Y284290D01*
X153605Y285395D01*
X154710Y287049D01*
X154849Y287750D01*
D02*
G37*
G36*
X409600Y316318D02*
X407188Y316001D01*
X404940Y315070D01*
X403010Y313589D01*
X401530Y311659D01*
X400599Y309412D01*
X400281Y307000D01*
X400599Y304588D01*
X401530Y302340D01*
X403010Y300410D01*
X404940Y298930D01*
X407188Y297999D01*
X409600Y297681D01*
X412012Y297999D01*
X414259Y298930D01*
X416189Y300410D01*
X417670Y302340D01*
X418601Y304588D01*
X418919Y307000D01*
X418601Y309412D01*
X417670Y311659D01*
X416189Y313589D01*
X414259Y315070D01*
X412012Y316001D01*
X409600Y316318D01*
D02*
G37*
G36*
X151250Y293849D02*
Y290250D01*
X154849D01*
X154710Y290951D01*
X153605Y292605D01*
X151951Y293710D01*
X151250Y293849D01*
D02*
G37*
G36*
X148750D02*
X148049Y293710D01*
X146395Y292605D01*
X145290Y290951D01*
X145151Y290250D01*
X148750D01*
Y293849D01*
D02*
G37*
G36*
X121450Y255418D02*
Y247250D01*
X129617D01*
X129455Y248480D01*
X128498Y250791D01*
X126975Y252776D01*
X124991Y254298D01*
X122680Y255256D01*
X121450Y255418D01*
D02*
G37*
G36*
X118950D02*
X117720Y255256D01*
X115409Y254298D01*
X113424Y252776D01*
X111902Y250791D01*
X110944Y248480D01*
X110782Y247250D01*
X118950D01*
Y255418D01*
D02*
G37*
G36*
X409600Y265518D02*
X407188Y265201D01*
X404940Y264270D01*
X403010Y262789D01*
X401530Y260859D01*
X400599Y258612D01*
X400281Y256200D01*
X400599Y253788D01*
X401530Y251540D01*
X403010Y249611D01*
X404940Y248130D01*
X407188Y247199D01*
X409600Y246881D01*
X412012Y247199D01*
X414259Y248130D01*
X416189Y249611D01*
X417670Y251540D01*
X418601Y253788D01*
X418919Y256200D01*
X418601Y258612D01*
X417670Y260859D01*
X416189Y262789D01*
X414259Y264270D01*
X412012Y265201D01*
X409600Y265518D01*
D02*
G37*
G36*
X120200Y285582D02*
X117720Y285256D01*
X115409Y284298D01*
X113424Y282776D01*
X111902Y280791D01*
X110944Y278480D01*
X110618Y276000D01*
X110944Y273520D01*
X111902Y271209D01*
X113424Y269225D01*
X115409Y267702D01*
X117720Y266745D01*
X120200Y266418D01*
X122680Y266745D01*
X124991Y267702D01*
X126975Y269225D01*
X128498Y271209D01*
X129455Y273520D01*
X129782Y276000D01*
X129455Y278480D01*
X128498Y280791D01*
X126975Y282776D01*
X124991Y284298D01*
X122680Y285256D01*
X120200Y285582D01*
D02*
G37*
G36*
X409600Y290919D02*
X407188Y290601D01*
X404940Y289670D01*
X403010Y288189D01*
X401530Y286259D01*
X400599Y284012D01*
X400281Y281600D01*
X400599Y279188D01*
X401530Y276940D01*
X403010Y275011D01*
X404940Y273530D01*
X407188Y272599D01*
X409600Y272281D01*
X412012Y272599D01*
X414259Y273530D01*
X416189Y275011D01*
X417670Y276940D01*
X418601Y279188D01*
X418919Y281600D01*
X418601Y284012D01*
X417670Y286259D01*
X416189Y288189D01*
X414259Y289670D01*
X412012Y290601D01*
X409600Y290919D01*
D02*
G37*
G36*
X145250Y189404D02*
X144412Y189294D01*
X142465Y188488D01*
X140794Y187206D01*
X139512Y185534D01*
X138706Y183588D01*
X138596Y182750D01*
X145250D01*
Y189404D01*
D02*
G37*
G36*
X202000Y130582D02*
X199520Y130256D01*
X197209Y129298D01*
X195225Y127776D01*
X193702Y125791D01*
X192745Y123480D01*
X192418Y121000D01*
X192745Y118520D01*
X193702Y116209D01*
X195225Y114225D01*
X197209Y112702D01*
X199520Y111745D01*
X202000Y111418D01*
X204480Y111745D01*
X206791Y112702D01*
X208776Y114225D01*
X210298Y116209D01*
X211255Y118520D01*
X211582Y121000D01*
X211255Y123480D01*
X210298Y125791D01*
X208776Y127776D01*
X206791Y129298D01*
X204480Y130256D01*
X202000Y130582D01*
D02*
G37*
G36*
X314000D02*
X311520Y130256D01*
X309209Y129298D01*
X307224Y127776D01*
X305702Y125791D01*
X304744Y123480D01*
X304418Y121000D01*
X304744Y118520D01*
X305702Y116209D01*
X307224Y114225D01*
X309209Y112702D01*
X311520Y111745D01*
X314000Y111418D01*
X316480Y111745D01*
X318791Y112702D01*
X320775Y114225D01*
X322298Y116209D01*
X323255Y118520D01*
X323582Y121000D01*
X323255Y123480D01*
X322298Y125791D01*
X320775Y127776D01*
X318791Y129298D01*
X316480Y130256D01*
X314000Y130582D01*
D02*
G37*
G36*
X145250Y180250D02*
X138596D01*
X138706Y179412D01*
X139512Y177465D01*
X140794Y175794D01*
X142465Y174512D01*
X144412Y173706D01*
X145250Y173596D01*
Y180250D01*
D02*
G37*
G36*
X325849Y180500D02*
X322250D01*
Y176901D01*
X322951Y177040D01*
X324605Y178145D01*
X325710Y179799D01*
X325849Y180500D01*
D02*
G37*
G36*
X319750D02*
X316151D01*
X316290Y179799D01*
X317395Y178145D01*
X319049Y177040D01*
X319750Y176901D01*
Y180500D01*
D02*
G37*
G36*
X154404Y180250D02*
X147750D01*
Y173596D01*
X148588Y173706D01*
X150534Y174512D01*
X152206Y175794D01*
X153488Y177465D01*
X154294Y179412D01*
X154404Y180250D01*
D02*
G37*
G36*
X308000Y268098D02*
X306049Y267710D01*
X304395Y266605D01*
X303290Y264951D01*
X302902Y263000D01*
X303290Y261049D01*
X304395Y259395D01*
X304686Y259201D01*
Y182372D01*
X246628Y124314D01*
X240910D01*
X240298Y125791D01*
X238776Y127776D01*
X236791Y129298D01*
X234480Y130256D01*
X232000Y130582D01*
X229520Y130256D01*
X227209Y129298D01*
X225225Y127776D01*
X223702Y125791D01*
X222745Y123480D01*
X222418Y121000D01*
X222745Y118520D01*
X223702Y116209D01*
X225225Y114225D01*
X227209Y112702D01*
X229520Y111745D01*
X232000Y111418D01*
X234480Y111745D01*
X236791Y112702D01*
X238776Y114225D01*
X240298Y116209D01*
X240910Y117687D01*
X248000D01*
X249268Y117939D01*
X250343Y118657D01*
X310343Y178657D01*
X311061Y179732D01*
X311314Y181000D01*
Y259201D01*
X311605Y259395D01*
X312710Y261049D01*
X313098Y263000D01*
X312710Y264951D01*
X311605Y266605D01*
X309951Y267710D01*
X308000Y268098D01*
D02*
G37*
G36*
X409600Y341718D02*
X407188Y341401D01*
X404940Y340470D01*
X403010Y338989D01*
X401530Y337059D01*
X400599Y334812D01*
X400281Y332400D01*
X400599Y329988D01*
X401530Y327740D01*
X403010Y325811D01*
X404940Y324330D01*
X407188Y323399D01*
X409600Y323081D01*
X412012Y323399D01*
X414259Y324330D01*
X416189Y325811D01*
X417670Y327740D01*
X418601Y329988D01*
X418919Y332400D01*
X418601Y334812D01*
X417670Y337059D01*
X416189Y338989D01*
X414259Y340470D01*
X412012Y341401D01*
X409600Y341718D01*
D02*
G37*
G36*
X197250Y389500D02*
X193651D01*
X193790Y388799D01*
X194895Y387145D01*
X196549Y386040D01*
X197250Y385901D01*
Y389500D01*
D02*
G37*
G36*
X257552Y389047D02*
X253953D01*
Y385448D01*
X254654Y385587D01*
X256308Y386692D01*
X257413Y388346D01*
X257552Y389047D01*
D02*
G37*
G36*
X251453D02*
X247854D01*
X247993Y388346D01*
X249098Y386692D01*
X250752Y385587D01*
X251453Y385448D01*
Y389047D01*
D02*
G37*
G36*
X203349Y389500D02*
X199750D01*
Y385901D01*
X200451Y386040D01*
X202105Y387145D01*
X203210Y388799D01*
X203349Y389500D01*
D02*
G37*
G36*
X251453Y395146D02*
X250752Y395007D01*
X249098Y393902D01*
X247993Y392248D01*
X247854Y391547D01*
X251453D01*
Y395146D01*
D02*
G37*
G36*
X409600Y367118D02*
X407188Y366801D01*
X404940Y365870D01*
X403010Y364389D01*
X401530Y362459D01*
X400599Y360212D01*
X400281Y357800D01*
X400599Y355388D01*
X401530Y353140D01*
X403010Y351211D01*
X404940Y349730D01*
X407188Y348799D01*
X409600Y348481D01*
X412012Y348799D01*
X414259Y349730D01*
X416189Y351211D01*
X417670Y353140D01*
X418601Y355388D01*
X418919Y357800D01*
X418601Y360212D01*
X417670Y362459D01*
X416189Y364389D01*
X414259Y365870D01*
X412012Y366801D01*
X409600Y367118D01*
D02*
G37*
G36*
X310000Y370314D02*
X262000D01*
X260732Y370061D01*
X259657Y369343D01*
X248627Y358314D01*
X213799D01*
X213605Y358605D01*
X211951Y359710D01*
X210000Y360098D01*
X208049Y359710D01*
X206395Y358605D01*
X205290Y356951D01*
X204902Y355000D01*
X205290Y353049D01*
X206395Y351395D01*
X208049Y350290D01*
X210000Y349902D01*
X211951Y350290D01*
X213605Y351395D01*
X213799Y351686D01*
X250000D01*
X251268Y351939D01*
X252343Y352657D01*
X263373Y363686D01*
X284039D01*
X284190Y362416D01*
X279531Y361298D01*
X274151Y359069D01*
X269185Y356026D01*
X264756Y352244D01*
X260974Y347815D01*
X257931Y342850D01*
X255702Y337469D01*
X254343Y331806D01*
X253886Y326000D01*
X254343Y320194D01*
X255702Y314531D01*
X257931Y309150D01*
X260974Y304185D01*
X264756Y299756D01*
X269185Y295974D01*
X274151Y292931D01*
X279531Y290702D01*
X285194Y289343D01*
X291000Y288886D01*
X296806Y289343D01*
X302469Y290702D01*
X307850Y292931D01*
X312815Y295974D01*
X317244Y299756D01*
X321026Y304185D01*
X324069Y309150D01*
X326298Y314531D01*
X327658Y320194D01*
X328115Y326000D01*
X327658Y331806D01*
X326298Y337469D01*
X324069Y342850D01*
X321026Y347815D01*
X317244Y352244D01*
X312815Y356026D01*
X307850Y359069D01*
X302469Y361298D01*
X297811Y362416D01*
X297961Y363686D01*
X308627D01*
X324907Y347407D01*
X325982Y346689D01*
X327250Y346436D01*
X369500D01*
X370768Y346689D01*
X371843Y347407D01*
X374343Y349907D01*
X375061Y350982D01*
X375314Y352250D01*
Y357201D01*
X375605Y357395D01*
X376710Y359049D01*
X377098Y361000D01*
X376710Y362951D01*
X375605Y364605D01*
X373951Y365710D01*
X372000Y366098D01*
X370049Y365710D01*
X368395Y364605D01*
X367290Y362951D01*
X366902Y361000D01*
X367290Y359049D01*
X368395Y357395D01*
X368686Y357201D01*
Y353623D01*
X368128Y353064D01*
X328623D01*
X312343Y369343D01*
X311268Y370061D01*
X311058Y370103D01*
X310000Y370314D01*
D02*
G37*
G36*
X325000Y382314D02*
X202000D01*
X200732Y382061D01*
X199657Y381343D01*
X195657Y377343D01*
X194939Y376268D01*
X194686Y375000D01*
Y329000D01*
X194939Y327732D01*
X195657Y326657D01*
X198657Y323657D01*
X199732Y322939D01*
X201000Y322686D01*
X233627D01*
X234686Y321627D01*
Y311024D01*
X233416Y310772D01*
X232760Y312357D01*
X231391Y314141D01*
X229607Y315510D01*
X227529Y316370D01*
X225300Y316664D01*
X223071Y316370D01*
X220993Y315510D01*
X219209Y314141D01*
X217840Y312357D01*
X216980Y310280D01*
X216686Y308050D01*
X216980Y305821D01*
X217840Y303743D01*
X219209Y301959D01*
X220993Y300590D01*
X223071Y299730D01*
X225300Y299436D01*
X227529Y299730D01*
X229607Y300590D01*
X231391Y301959D01*
X232760Y303743D01*
X233416Y305329D01*
X234686Y305076D01*
Y296871D01*
X233693Y296460D01*
X231909Y295091D01*
X230540Y293307D01*
X229680Y291229D01*
X229386Y289000D01*
X229680Y286771D01*
X230540Y284693D01*
X231909Y282909D01*
X233693Y281541D01*
X235771Y280680D01*
X238000Y280387D01*
X240229Y280680D01*
X242307Y281541D01*
X244091Y282909D01*
X245460Y284693D01*
X246320Y286771D01*
X246614Y289000D01*
X246320Y291229D01*
X245460Y293307D01*
X244091Y295091D01*
X242307Y296460D01*
X241314Y296871D01*
Y323000D01*
X241061Y324268D01*
X240343Y325343D01*
X237343Y328343D01*
X236268Y329061D01*
X235000Y329314D01*
X202373D01*
X201314Y330373D01*
Y373628D01*
X203373Y375686D01*
X323628D01*
X326686Y372627D01*
Y364799D01*
X326395Y364605D01*
X325290Y362951D01*
X324902Y361000D01*
X325290Y359049D01*
X326395Y357395D01*
X328049Y356290D01*
X330000Y355902D01*
X331951Y356290D01*
X333605Y357395D01*
X334710Y359049D01*
X335098Y361000D01*
X334710Y362951D01*
X333605Y364605D01*
X333314Y364799D01*
Y374000D01*
X333061Y375268D01*
X332343Y376343D01*
X327343Y381343D01*
X326268Y382061D01*
X326058Y382103D01*
X325000Y382314D01*
D02*
G37*
G36*
X199750Y395599D02*
Y392000D01*
X203349D01*
X203210Y392701D01*
X202105Y394355D01*
X200451Y395460D01*
X199750Y395599D01*
D02*
G37*
G36*
X197250D02*
X196549Y395460D01*
X194895Y394355D01*
X193790Y392701D01*
X193651Y392000D01*
X197250D01*
Y395599D01*
D02*
G37*
G36*
X253953Y395146D02*
Y391547D01*
X257552D01*
X257413Y392248D01*
X256308Y393902D01*
X254654Y395007D01*
X253953Y395146D01*
D02*
G37*
G36*
X285000Y421098D02*
X283049Y420710D01*
X281395Y419605D01*
X280290Y417951D01*
X279902Y416000D01*
X280290Y414049D01*
X281395Y412395D01*
X283049Y411290D01*
X285000Y410902D01*
X286951Y411290D01*
X288605Y412395D01*
X288799Y412686D01*
X290627D01*
X305657Y397657D01*
X306732Y396939D01*
X308000Y396686D01*
X337201D01*
X337395Y396395D01*
X339049Y395290D01*
X341000Y394902D01*
X342951Y395290D01*
X344605Y396395D01*
X345710Y398049D01*
X346098Y400000D01*
X345710Y401951D01*
X344605Y403605D01*
X342951Y404710D01*
X341000Y405098D01*
X339049Y404710D01*
X337395Y403605D01*
X337201Y403314D01*
X309373D01*
X294343Y418343D01*
X293268Y419061D01*
X292000Y419314D01*
X288799D01*
X288605Y419605D01*
X286951Y420710D01*
X285000Y421098D01*
D02*
G37*
G36*
X90200Y255582D02*
X87720Y255256D01*
X85409Y254298D01*
X83425Y252776D01*
X81902Y250791D01*
X80944Y248480D01*
X80618Y246000D01*
X80944Y243520D01*
X81902Y241209D01*
X83425Y239225D01*
X85409Y237702D01*
X87720Y236745D01*
X90200Y236418D01*
X92680Y236745D01*
X94991Y237702D01*
X96975Y239225D01*
X98498Y241209D01*
X99455Y243520D01*
X99782Y246000D01*
X99455Y248480D01*
X98498Y250791D01*
X96975Y252776D01*
X94991Y254298D01*
X92680Y255256D01*
X90200Y255582D01*
D02*
G37*
G36*
X47000Y263082D02*
X43668Y262754D01*
X40463Y261782D01*
X37510Y260203D01*
X34921Y258079D01*
X32797Y255491D01*
X31218Y252537D01*
X30246Y249333D01*
X29918Y246000D01*
X30246Y242668D01*
X31218Y239463D01*
X32797Y236510D01*
X34921Y233921D01*
X37510Y231797D01*
X40463Y230218D01*
X43668Y229246D01*
X47000Y228918D01*
X50333Y229246D01*
X53537Y230218D01*
X56491Y231797D01*
X59079Y233921D01*
X61203Y236510D01*
X62782Y239463D01*
X63754Y242668D01*
X64082Y246000D01*
X63754Y249333D01*
X62782Y252537D01*
X61203Y255491D01*
X59079Y258079D01*
X56491Y260203D01*
X53537Y261782D01*
X50333Y262754D01*
X47000Y263082D01*
D02*
G37*
G36*
X90200Y225582D02*
X87720Y225255D01*
X85409Y224298D01*
X83425Y222775D01*
X81902Y220791D01*
X80944Y218480D01*
X80618Y216000D01*
X80944Y213520D01*
X81902Y211209D01*
X83425Y209224D01*
X85409Y207701D01*
X87720Y206744D01*
X90200Y206418D01*
X92680Y206744D01*
X94991Y207701D01*
X96975Y209224D01*
X98498Y211209D01*
X99455Y213520D01*
X99782Y216000D01*
X99455Y218480D01*
X98498Y220791D01*
X96975Y222775D01*
X94991Y224298D01*
X92680Y225255D01*
X90200Y225582D01*
D02*
G37*
G36*
X91450Y285417D02*
Y277250D01*
X99617D01*
X99455Y278480D01*
X98498Y280791D01*
X96975Y282776D01*
X94991Y284298D01*
X92680Y285256D01*
X91450Y285417D01*
D02*
G37*
G36*
X88950D02*
X87720Y285256D01*
X85409Y284298D01*
X83425Y282776D01*
X81902Y280791D01*
X80944Y278480D01*
X80783Y277250D01*
X88950D01*
Y285417D01*
D02*
G37*
G36*
X99617Y274750D02*
X91450D01*
Y266583D01*
X92680Y266745D01*
X94991Y267702D01*
X96975Y269225D01*
X98498Y271209D01*
X99455Y273520D01*
X99617Y274750D01*
D02*
G37*
G36*
X88950D02*
X80783D01*
X80944Y273520D01*
X81902Y271209D01*
X83425Y269225D01*
X85409Y267702D01*
X87720Y266745D01*
X88950Y266583D01*
Y274750D01*
D02*
G37*
G36*
X129418Y118950D02*
X121250D01*
Y110783D01*
X122480Y110945D01*
X124791Y111902D01*
X126776Y113425D01*
X128298Y115409D01*
X129256Y117720D01*
X129418Y118950D01*
D02*
G37*
G36*
X118750D02*
X110583D01*
X110745Y117720D01*
X111702Y115409D01*
X113225Y113425D01*
X115209Y111902D01*
X117520Y110945D01*
X118750Y110783D01*
Y118950D01*
D02*
G37*
G36*
X383418Y119750D02*
X375250D01*
Y111583D01*
X376480Y111745D01*
X378791Y112702D01*
X380776Y114225D01*
X382298Y116209D01*
X383256Y118520D01*
X383418Y119750D01*
D02*
G37*
G36*
X372750D02*
X364583D01*
X364745Y118520D01*
X365702Y116209D01*
X367225Y114225D01*
X369209Y112702D01*
X371520Y111745D01*
X372750Y111583D01*
Y119750D01*
D02*
G37*
G36*
X404000Y130582D02*
X401520Y130256D01*
X399209Y129298D01*
X397225Y127776D01*
X395702Y125791D01*
X394745Y123480D01*
X394418Y121000D01*
X394745Y118520D01*
X395702Y116209D01*
X397225Y114225D01*
X399209Y112702D01*
X401520Y111745D01*
X404000Y111418D01*
X406480Y111745D01*
X408791Y112702D01*
X410776Y114225D01*
X412298Y116209D01*
X413256Y118520D01*
X413582Y121000D01*
X413256Y123480D01*
X412298Y125791D01*
X410776Y127776D01*
X408791Y129298D01*
X406480Y130256D01*
X404000Y130582D01*
D02*
G37*
G36*
X120000Y64082D02*
X116668Y63754D01*
X113463Y62782D01*
X110510Y61203D01*
X107921Y59079D01*
X105797Y56490D01*
X104218Y53537D01*
X103246Y50332D01*
X102918Y47000D01*
X103246Y43667D01*
X104218Y40463D01*
X105797Y37509D01*
X107921Y34921D01*
X110510Y32796D01*
X113463Y31218D01*
X116668Y30246D01*
X120000Y29918D01*
X123333Y30246D01*
X126537Y31218D01*
X129491Y32796D01*
X132079Y34921D01*
X134204Y37509D01*
X135782Y40463D01*
X136754Y43667D01*
X137083Y47000D01*
X136754Y50332D01*
X135782Y53537D01*
X134204Y56490D01*
X132079Y59079D01*
X129491Y61203D01*
X126537Y62782D01*
X123333Y63754D01*
X120000Y64082D01*
D02*
G37*
G36*
X45000Y78591D02*
X40371Y78227D01*
X35856Y77143D01*
X31566Y75366D01*
X27607Y72940D01*
X24076Y69924D01*
X21060Y66393D01*
X18634Y62434D01*
X16857Y58144D01*
X15773Y53629D01*
X15409Y49000D01*
X15773Y44371D01*
X16857Y39856D01*
X18634Y35566D01*
X21060Y31607D01*
X24076Y28076D01*
X27607Y25060D01*
X31566Y22634D01*
X35856Y20857D01*
X40371Y19773D01*
X45000Y19409D01*
X49629Y19773D01*
X54144Y20857D01*
X58434Y22634D01*
X62393Y25060D01*
X65924Y28076D01*
X68940Y31607D01*
X71366Y35566D01*
X73143Y39856D01*
X74227Y44371D01*
X74591Y49000D01*
X74227Y53629D01*
X73143Y58144D01*
X71366Y62434D01*
X68940Y66393D01*
X65924Y69924D01*
X62393Y72940D01*
X58434Y75366D01*
X54144Y77143D01*
X49629Y78227D01*
X45000Y78591D01*
D02*
G37*
G36*
X534000Y78591D02*
X529371Y78227D01*
X524856Y77143D01*
X520566Y75366D01*
X516607Y72940D01*
X513076Y69924D01*
X510060Y66393D01*
X507634Y62434D01*
X505857Y58144D01*
X504773Y53629D01*
X504409Y49000D01*
X504773Y44371D01*
X505857Y39856D01*
X507634Y35566D01*
X510060Y31607D01*
X513076Y28076D01*
X516607Y25060D01*
X520566Y22634D01*
X524856Y20857D01*
X529371Y19773D01*
X534000Y19409D01*
X538629Y19773D01*
X543144Y20857D01*
X547434Y22634D01*
X551393Y25060D01*
X554924Y28076D01*
X557940Y31607D01*
X560366Y35566D01*
X562143Y39856D01*
X563227Y44371D01*
X563591Y49000D01*
X563227Y53629D01*
X562143Y58144D01*
X560366Y62434D01*
X557940Y66393D01*
X554924Y69924D01*
X551393Y72940D01*
X547434Y75366D01*
X543144Y77143D01*
X538629Y78227D01*
X534000Y78591D01*
D02*
G37*
G36*
X217000Y64882D02*
X213667Y64554D01*
X210463Y63582D01*
X207509Y62003D01*
X204921Y59879D01*
X202796Y57290D01*
X201218Y54337D01*
X200246Y51132D01*
X199918Y47800D01*
X200246Y44467D01*
X201218Y41263D01*
X202796Y38310D01*
X204921Y35721D01*
X207509Y33597D01*
X210463Y32018D01*
X213667Y31046D01*
X217000Y30718D01*
X220332Y31046D01*
X223537Y32018D01*
X226490Y33597D01*
X229079Y35721D01*
X231203Y38310D01*
X232782Y41263D01*
X233754Y44467D01*
X234082Y47800D01*
X233754Y51132D01*
X232782Y54337D01*
X231203Y57290D01*
X229079Y59879D01*
X226490Y62003D01*
X223537Y63582D01*
X220332Y64554D01*
X217000Y64882D01*
D02*
G37*
G36*
X120000Y99782D02*
X117520Y99456D01*
X115209Y98498D01*
X113225Y96976D01*
X111702Y94991D01*
X110745Y92680D01*
X110418Y90200D01*
X110745Y87720D01*
X111702Y85409D01*
X113225Y83425D01*
X115209Y81902D01*
X117520Y80945D01*
X120000Y80618D01*
X122480Y80945D01*
X124791Y81902D01*
X126776Y83425D01*
X128298Y85409D01*
X129256Y87720D01*
X129582Y90200D01*
X129256Y92680D01*
X128298Y94991D01*
X126776Y96976D01*
X124791Y98498D01*
X122480Y99456D01*
X120000Y99782D01*
D02*
G37*
G36*
X383000Y64882D02*
X379667Y64554D01*
X376463Y63582D01*
X373510Y62003D01*
X370921Y59879D01*
X368797Y57290D01*
X367218Y54337D01*
X366246Y51132D01*
X365918Y47800D01*
X366246Y44467D01*
X367218Y41263D01*
X368797Y38310D01*
X370921Y35721D01*
X373510Y33597D01*
X376463Y32018D01*
X379667Y31046D01*
X383000Y30718D01*
X386333Y31046D01*
X389537Y32018D01*
X392490Y33597D01*
X395079Y35721D01*
X397203Y38310D01*
X398782Y41263D01*
X399754Y44467D01*
X400082Y47800D01*
X399754Y51132D01*
X398782Y54337D01*
X397203Y57290D01*
X395079Y59879D01*
X392490Y62003D01*
X389537Y63582D01*
X386333Y64554D01*
X383000Y64882D01*
D02*
G37*
G36*
X336000D02*
X332667Y64554D01*
X329463Y63582D01*
X326509Y62003D01*
X323921Y59879D01*
X321796Y57290D01*
X320218Y54337D01*
X319246Y51132D01*
X318918Y47800D01*
X319246Y44467D01*
X320218Y41263D01*
X321796Y38310D01*
X323921Y35721D01*
X326509Y33597D01*
X329463Y32018D01*
X332667Y31046D01*
X336000Y30718D01*
X339332Y31046D01*
X342537Y32018D01*
X345490Y33597D01*
X348079Y35721D01*
X350203Y38310D01*
X351782Y41263D01*
X352754Y44467D01*
X353082Y47800D01*
X352754Y51132D01*
X351782Y54337D01*
X350203Y57290D01*
X348079Y59879D01*
X345490Y62003D01*
X342537Y63582D01*
X339332Y64554D01*
X336000Y64882D01*
D02*
G37*
G36*
X493050Y155417D02*
Y147250D01*
X501217D01*
X501055Y148480D01*
X500098Y150791D01*
X498575Y152775D01*
X496591Y154298D01*
X494280Y155255D01*
X493050Y155417D01*
D02*
G37*
G36*
X490550D02*
X489320Y155255D01*
X487009Y154298D01*
X485024Y152775D01*
X483502Y150791D01*
X482544Y148480D01*
X482383Y147250D01*
X490550D01*
Y155417D01*
D02*
G37*
G36*
X501217Y144750D02*
X493050D01*
Y136582D01*
X494280Y136744D01*
X496591Y137702D01*
X498575Y139224D01*
X500098Y141209D01*
X501055Y143520D01*
X501217Y144750D01*
D02*
G37*
G36*
X372750Y130418D02*
X371520Y130256D01*
X369209Y129298D01*
X367225Y127776D01*
X365702Y125791D01*
X364745Y123480D01*
X364583Y122250D01*
X372750D01*
Y130418D01*
D02*
G37*
G36*
X121250Y129618D02*
Y121450D01*
X129418D01*
X129256Y122680D01*
X128298Y124991D01*
X126776Y126975D01*
X124791Y128498D01*
X122480Y129455D01*
X121250Y129618D01*
D02*
G37*
G36*
X118750D02*
X117520Y129455D01*
X115209Y128498D01*
X113225Y126975D01*
X111702Y124991D01*
X110745Y122680D01*
X110583Y121450D01*
X118750D01*
Y129618D01*
D02*
G37*
G36*
X375250Y130418D02*
Y122250D01*
X383418D01*
X383256Y123480D01*
X382298Y125791D01*
X380776Y127776D01*
X378791Y129298D01*
X376480Y130256D01*
X375250Y130418D01*
D02*
G37*
G36*
X490550Y144750D02*
X482383D01*
X482544Y143520D01*
X483502Y141209D01*
X485024Y139224D01*
X487009Y137702D01*
X489320Y136744D01*
X490550Y136582D01*
Y144750D01*
D02*
G37*
G36*
X535000Y163082D02*
X531668Y162754D01*
X528463Y161782D01*
X525510Y160203D01*
X522921Y158079D01*
X520797Y155490D01*
X519218Y152537D01*
X518246Y149333D01*
X517918Y146000D01*
X518246Y142667D01*
X519218Y139463D01*
X520797Y136510D01*
X522921Y133921D01*
X525510Y131797D01*
X528463Y130218D01*
X531668Y129246D01*
X535000Y128918D01*
X538333Y129246D01*
X541537Y130218D01*
X544491Y131797D01*
X547079Y133921D01*
X549203Y136510D01*
X550782Y139463D01*
X551754Y142667D01*
X552082Y146000D01*
X551754Y149333D01*
X550782Y152537D01*
X549203Y155490D01*
X547079Y158079D01*
X544491Y160203D01*
X541537Y161782D01*
X538333Y162754D01*
X535000Y163082D01*
D02*
G37*
G36*
X194750Y535750D02*
X191151D01*
X191290Y535049D01*
X192395Y533395D01*
X194049Y532290D01*
X194750Y532151D01*
Y535750D01*
D02*
G37*
G36*
X365500Y531849D02*
Y528250D01*
X369099D01*
X368960Y528951D01*
X367855Y530605D01*
X366201Y531710D01*
X365500Y531849D01*
D02*
G37*
G36*
X363000D02*
X362299Y531710D01*
X360645Y530605D01*
X359540Y528951D01*
X359401Y528250D01*
X363000D01*
Y531849D01*
D02*
G37*
G36*
X200849Y535750D02*
X197250D01*
Y532151D01*
X197951Y532290D01*
X199605Y533395D01*
X200710Y535049D01*
X200849Y535750D01*
D02*
G37*
G36*
X194750Y541849D02*
X194049Y541710D01*
X192395Y540605D01*
X191290Y538951D01*
X191151Y538250D01*
X194750D01*
Y541849D01*
D02*
G37*
G36*
X410850Y544754D02*
Y536850D01*
X418754D01*
X418601Y538012D01*
X417670Y540259D01*
X416189Y542189D01*
X414259Y543670D01*
X412012Y544601D01*
X410850Y544754D01*
D02*
G37*
G36*
X408350D02*
X407188Y544601D01*
X404940Y543670D01*
X403010Y542189D01*
X401530Y540259D01*
X400599Y538012D01*
X400446Y536850D01*
X408350D01*
Y544754D01*
D02*
G37*
G36*
X120000Y540582D02*
X117520Y540255D01*
X115209Y539298D01*
X113225Y537775D01*
X111702Y535791D01*
X110745Y533480D01*
X110418Y531000D01*
X110745Y528520D01*
X111702Y526209D01*
X113225Y524224D01*
X115209Y522702D01*
X117520Y521744D01*
X120000Y521418D01*
X122480Y521744D01*
X124791Y522702D01*
X126776Y524224D01*
X128298Y526209D01*
X129256Y528520D01*
X129582Y531000D01*
X129256Y533480D01*
X128298Y535791D01*
X126776Y537775D01*
X124791Y539298D01*
X122480Y540255D01*
X120000Y540582D01*
D02*
G37*
G36*
X90000D02*
X87520Y540255D01*
X85209Y539298D01*
X83224Y537775D01*
X81702Y535791D01*
X80744Y533480D01*
X80418Y531000D01*
X80744Y528520D01*
X81702Y526209D01*
X83224Y524224D01*
X85209Y522702D01*
X87520Y521744D01*
X90000Y521418D01*
X92480Y521744D01*
X94791Y522702D01*
X96775Y524224D01*
X98298Y526209D01*
X99255Y528520D01*
X99582Y531000D01*
X99255Y533480D01*
X98298Y535791D01*
X96775Y537775D01*
X94791Y539298D01*
X92480Y540255D01*
X90000Y540582D01*
D02*
G37*
G36*
X238250Y504599D02*
Y501000D01*
X241849D01*
X241710Y501701D01*
X240605Y503355D01*
X238951Y504460D01*
X238250Y504599D01*
D02*
G37*
G36*
X363000Y525750D02*
X359401D01*
X359540Y525049D01*
X360645Y523395D01*
X362299Y522290D01*
X363000Y522151D01*
Y525750D01*
D02*
G37*
G36*
X418754Y534350D02*
X410850D01*
Y526446D01*
X412012Y526599D01*
X414259Y527530D01*
X416189Y529011D01*
X417670Y530940D01*
X418601Y533188D01*
X418754Y534350D01*
D02*
G37*
G36*
X408350D02*
X400446D01*
X400599Y533188D01*
X401530Y530940D01*
X403010Y529011D01*
X404940Y527530D01*
X407188Y526599D01*
X408350Y526446D01*
Y534350D01*
D02*
G37*
G36*
X369099Y525750D02*
X365500D01*
Y522151D01*
X366201Y522290D01*
X367855Y523395D01*
X368960Y525049D01*
X369099Y525750D01*
D02*
G37*
G36*
X369849Y633750D02*
X366250D01*
Y630151D01*
X366951Y630290D01*
X368605Y631395D01*
X369710Y633049D01*
X369849Y633750D01*
D02*
G37*
G36*
X363750D02*
X360151D01*
X360290Y633049D01*
X361395Y631395D01*
X363049Y630290D01*
X363750Y630151D01*
Y633750D01*
D02*
G37*
G36*
X323250Y615849D02*
Y612250D01*
X326849D01*
X326710Y612951D01*
X325605Y614605D01*
X323951Y615710D01*
X323250Y615849D01*
D02*
G37*
G36*
X195250Y635500D02*
X191651D01*
X191790Y634799D01*
X192895Y633145D01*
X194549Y632040D01*
X195250Y631901D01*
Y635500D01*
D02*
G37*
G36*
X366250Y639849D02*
Y636250D01*
X369849D01*
X369710Y636951D01*
X368605Y638605D01*
X366951Y639710D01*
X366250Y639849D01*
D02*
G37*
G36*
X363750D02*
X363049Y639710D01*
X361395Y638605D01*
X360290Y636951D01*
X360151Y636250D01*
X363750D01*
Y639849D01*
D02*
G37*
G36*
X201349Y635500D02*
X197750D01*
Y631901D01*
X198451Y632040D01*
X200105Y633145D01*
X201210Y634799D01*
X201349Y635500D01*
D02*
G37*
G36*
X534000Y638591D02*
X529371Y638227D01*
X524856Y637143D01*
X520566Y635366D01*
X516607Y632940D01*
X513076Y629924D01*
X510060Y626393D01*
X507634Y622434D01*
X505857Y618144D01*
X504773Y613629D01*
X504409Y609000D01*
X504773Y604371D01*
X505857Y599856D01*
X507634Y595566D01*
X510060Y591607D01*
X513076Y588076D01*
X516607Y585060D01*
X520566Y582634D01*
X524856Y580857D01*
X529371Y579773D01*
X534000Y579409D01*
X538629Y579773D01*
X543144Y580857D01*
X547434Y582634D01*
X551393Y585060D01*
X554924Y588076D01*
X557940Y591607D01*
X560366Y595566D01*
X562143Y599856D01*
X563227Y604371D01*
X563591Y609000D01*
X563227Y613629D01*
X562143Y618144D01*
X560366Y622434D01*
X557940Y626393D01*
X554924Y629924D01*
X551393Y632940D01*
X547434Y635366D01*
X543144Y637143D01*
X538629Y638227D01*
X534000Y638591D01*
D02*
G37*
G36*
X45000D02*
X40371Y638227D01*
X35856Y637143D01*
X31566Y635366D01*
X27607Y632940D01*
X24076Y629924D01*
X21060Y626393D01*
X18634Y622434D01*
X16857Y618144D01*
X15773Y613629D01*
X15409Y609000D01*
X15773Y604371D01*
X16857Y599856D01*
X18634Y595566D01*
X21060Y591607D01*
X24076Y588076D01*
X27607Y585060D01*
X31566Y582634D01*
X35856Y580857D01*
X40371Y579773D01*
X45000Y579409D01*
X49629Y579773D01*
X54144Y580857D01*
X58434Y582634D01*
X62393Y585060D01*
X65924Y588076D01*
X68940Y591607D01*
X71366Y595566D01*
X73143Y599856D01*
X74227Y604371D01*
X74591Y609000D01*
X74227Y613629D01*
X73143Y618144D01*
X71366Y622434D01*
X68940Y626393D01*
X65924Y629924D01*
X62393Y632940D01*
X58434Y635366D01*
X54144Y637143D01*
X49629Y638227D01*
X45000Y638591D01*
D02*
G37*
G36*
X197250Y541849D02*
Y538250D01*
X200849D01*
X200710Y538951D01*
X199605Y540605D01*
X197951Y541710D01*
X197250Y541849D01*
D02*
G37*
G36*
X271000Y603098D02*
X269535Y602807D01*
X269500Y602814D01*
X193500D01*
X192232Y602561D01*
X191157Y601843D01*
X188657Y599343D01*
X187939Y598268D01*
X187686Y597000D01*
Y594799D01*
X187395Y594605D01*
X186290Y592951D01*
X185902Y591000D01*
X186290Y589049D01*
X187395Y587395D01*
X189049Y586290D01*
X191000Y585902D01*
X192951Y586290D01*
X194605Y587395D01*
X195710Y589049D01*
X196098Y591000D01*
X195710Y592951D01*
X194605Y594605D01*
X194621Y595935D01*
X194872Y596186D01*
X266263D01*
X266290Y596049D01*
X267395Y594395D01*
X269049Y593290D01*
X271000Y592902D01*
X272951Y593290D01*
X274605Y594395D01*
X275710Y596049D01*
X276098Y598000D01*
X275710Y599951D01*
X274605Y601605D01*
X272951Y602710D01*
X271000Y603098D01*
D02*
G37*
G36*
X320750Y615849D02*
X320049Y615710D01*
X318395Y614605D01*
X317290Y612951D01*
X317151Y612250D01*
X320750D01*
Y615849D01*
D02*
G37*
G36*
X326849Y609750D02*
X323250D01*
Y606151D01*
X323951Y606290D01*
X325605Y607395D01*
X326710Y609049D01*
X326849Y609750D01*
D02*
G37*
G36*
X320750D02*
X317151D01*
X317290Y609049D01*
X318395Y607395D01*
X320049Y606290D01*
X320750Y606151D01*
Y609750D01*
D02*
G37*
G36*
X91250Y398418D02*
Y390250D01*
X99417D01*
X99255Y391480D01*
X98298Y393791D01*
X96775Y395776D01*
X94791Y397298D01*
X92480Y398256D01*
X91250Y398418D01*
D02*
G37*
G36*
X88750D02*
X87520Y398256D01*
X85209Y397298D01*
X83224Y395776D01*
X81702Y393791D01*
X80744Y391480D01*
X80582Y390250D01*
X88750D01*
Y398418D01*
D02*
G37*
G36*
X90000Y368582D02*
X87520Y368256D01*
X85209Y367298D01*
X83224Y365776D01*
X81702Y363791D01*
X80744Y361480D01*
X80418Y359000D01*
X80744Y356520D01*
X81702Y354209D01*
X83224Y352225D01*
X85209Y350702D01*
X87520Y349745D01*
X90000Y349418D01*
X92480Y349745D01*
X94791Y350702D01*
X96775Y352225D01*
X98298Y354209D01*
X99255Y356520D01*
X99582Y359000D01*
X99255Y361480D01*
X98298Y363791D01*
X96775Y365776D01*
X94791Y367298D01*
X92480Y368256D01*
X90000Y368582D01*
D02*
G37*
G36*
X99417Y387750D02*
X91250D01*
Y379583D01*
X92480Y379745D01*
X94791Y380702D01*
X96775Y382225D01*
X98298Y384209D01*
X99255Y386520D01*
X99417Y387750D01*
D02*
G37*
G36*
X88750D02*
X80582D01*
X80744Y386520D01*
X81702Y384209D01*
X83224Y382225D01*
X85209Y380702D01*
X87520Y379745D01*
X88750Y379583D01*
Y387750D01*
D02*
G37*
G36*
X46800Y391082D02*
X43467Y390754D01*
X40263Y389782D01*
X37310Y388203D01*
X34721Y386079D01*
X32597Y383490D01*
X31018Y380537D01*
X30046Y377332D01*
X29718Y374000D01*
X30046Y370667D01*
X31018Y367463D01*
X32597Y364510D01*
X34721Y361921D01*
X37310Y359797D01*
X40263Y358218D01*
X43467Y357246D01*
X46800Y356918D01*
X50133Y357246D01*
X53337Y358218D01*
X56290Y359797D01*
X58879Y361921D01*
X61003Y364510D01*
X62582Y367463D01*
X63554Y370667D01*
X63882Y374000D01*
X63554Y377332D01*
X62582Y380537D01*
X61003Y383490D01*
X58879Y386079D01*
X56290Y388203D01*
X53337Y389782D01*
X50133Y390754D01*
X46800Y391082D01*
D02*
G37*
G36*
X235750Y498500D02*
X232151D01*
X232290Y497799D01*
X233395Y496145D01*
X235049Y495040D01*
X235750Y494901D01*
Y498500D01*
D02*
G37*
G36*
X120000Y510582D02*
X117520Y510255D01*
X115209Y509298D01*
X113225Y507775D01*
X111702Y505791D01*
X110745Y503480D01*
X110418Y501000D01*
X110745Y498520D01*
X111702Y496209D01*
X113225Y494225D01*
X115209Y492702D01*
X117520Y491744D01*
X120000Y491418D01*
X122480Y491744D01*
X124791Y492702D01*
X126776Y494225D01*
X128298Y496209D01*
X129256Y498520D01*
X129582Y501000D01*
X129256Y503480D01*
X128298Y505791D01*
X126776Y507775D01*
X124791Y509298D01*
X122480Y510255D01*
X120000Y510582D01*
D02*
G37*
G36*
X90000D02*
X87520Y510255D01*
X85209Y509298D01*
X83224Y507775D01*
X81702Y505791D01*
X80744Y503480D01*
X80418Y501000D01*
X80744Y498520D01*
X81702Y496209D01*
X83224Y494225D01*
X85209Y492702D01*
X87520Y491744D01*
X90000Y491418D01*
X92480Y491744D01*
X94791Y492702D01*
X96775Y494225D01*
X98298Y496209D01*
X99255Y498520D01*
X99582Y501000D01*
X99255Y503480D01*
X98298Y505791D01*
X96775Y507775D01*
X94791Y509298D01*
X92480Y510255D01*
X90000Y510582D01*
D02*
G37*
G36*
X241849Y498500D02*
X238250D01*
Y494901D01*
X238951Y495040D01*
X240605Y496145D01*
X241710Y497799D01*
X241849Y498500D01*
D02*
G37*
G36*
X235750Y504599D02*
X235049Y504460D01*
X233395Y503355D01*
X232290Y501701D01*
X232151Y501000D01*
X235750D01*
Y504599D01*
D02*
G37*
G36*
X536600Y519519D02*
X534188Y519201D01*
X531940Y518270D01*
X530010Y516789D01*
X528530Y514859D01*
X527599Y512612D01*
X527281Y510200D01*
X527599Y507788D01*
X528530Y505540D01*
X530010Y503610D01*
X531940Y502130D01*
X534188Y501199D01*
X536600Y500881D01*
X539012Y501199D01*
X541259Y502130D01*
X543189Y503610D01*
X544670Y505540D01*
X545601Y507788D01*
X545919Y510200D01*
X545601Y512612D01*
X544670Y514859D01*
X543189Y516789D01*
X541259Y518270D01*
X539012Y519201D01*
X536600Y519519D01*
D02*
G37*
G36*
X409600D02*
X407188Y519201D01*
X404940Y518270D01*
X403010Y516789D01*
X401530Y514859D01*
X400599Y512612D01*
X400281Y510200D01*
X400599Y507788D01*
X401530Y505540D01*
X403010Y503610D01*
X404940Y502130D01*
X407188Y501199D01*
X409600Y500881D01*
X412012Y501199D01*
X414259Y502130D01*
X416189Y503610D01*
X417670Y505540D01*
X418601Y507788D01*
X418919Y510200D01*
X418601Y512612D01*
X417670Y514859D01*
X416189Y516789D01*
X414259Y518270D01*
X412012Y519201D01*
X409600Y519519D01*
D02*
G37*
G36*
X46800Y518082D02*
X43467Y517754D01*
X40263Y516782D01*
X37310Y515203D01*
X34721Y513079D01*
X32597Y510490D01*
X31018Y507537D01*
X30046Y504333D01*
X29718Y501000D01*
X30046Y497667D01*
X31018Y494463D01*
X32597Y491510D01*
X34721Y488921D01*
X37310Y486797D01*
X40263Y485218D01*
X43467Y484246D01*
X46800Y483918D01*
X50133Y484246D01*
X53337Y485218D01*
X56290Y486797D01*
X58879Y488921D01*
X61003Y491510D01*
X62582Y494463D01*
X63554Y497667D01*
X63882Y501000D01*
X63554Y504333D01*
X62582Y507537D01*
X61003Y510490D01*
X58879Y513079D01*
X56290Y515203D01*
X53337Y516782D01*
X50133Y517754D01*
X46800Y518082D01*
D02*
G37*
G36*
X120000Y480582D02*
X117520Y480256D01*
X115209Y479298D01*
X113225Y477775D01*
X111702Y475791D01*
X110745Y473480D01*
X110418Y471000D01*
X110745Y468520D01*
X111702Y466209D01*
X113225Y464225D01*
X115209Y462702D01*
X117520Y461744D01*
X120000Y461418D01*
X122480Y461744D01*
X124791Y462702D01*
X126776Y464225D01*
X128298Y466209D01*
X129256Y468520D01*
X129582Y471000D01*
X129256Y473480D01*
X128298Y475791D01*
X126776Y477775D01*
X124791Y479298D01*
X122480Y480256D01*
X120000Y480582D01*
D02*
G37*
G36*
X90000D02*
X87520Y480256D01*
X85209Y479298D01*
X83224Y477775D01*
X81702Y475791D01*
X80744Y473480D01*
X80418Y471000D01*
X80744Y468520D01*
X81702Y466209D01*
X83224Y464225D01*
X85209Y462702D01*
X87520Y461744D01*
X90000Y461418D01*
X92480Y461744D01*
X94791Y462702D01*
X96775Y464225D01*
X98298Y466209D01*
X99255Y468520D01*
X99582Y471000D01*
X99255Y473480D01*
X98298Y475791D01*
X96775Y477775D01*
X94791Y479298D01*
X92480Y480256D01*
X90000Y480582D01*
D02*
G37*
%LPD*%
D19*
X232000Y121000D02*
X248000D01*
X212600Y277400D02*
X217000Y273000D01*
Y107000D02*
Y273000D01*
Y107000D02*
X220000Y104000D01*
X188000Y77000D02*
X229500D01*
X106000Y159000D02*
X188000Y77000D01*
X106000Y159000D02*
Y399000D01*
X229500Y77000D02*
X232000Y79500D01*
X120000Y389000D02*
Y403000D01*
X389000Y217000D02*
X559000D01*
X366000Y240000D02*
X389000Y217000D01*
X366000Y240000D02*
Y267000D01*
X388400Y205400D02*
X409600D01*
X330000Y147000D02*
X388400Y205400D01*
X330000Y96000D02*
Y147000D01*
X461800Y124800D02*
Y146000D01*
X414000Y77000D02*
X461800Y124800D01*
X298000Y77000D02*
X414000D01*
X324000Y90000D02*
X330000Y96000D01*
X315000Y90000D02*
X324000D01*
X420500Y395500D02*
X541750Y274250D01*
X399500Y395500D02*
X420500D01*
X430500Y421000D02*
X548000Y303500D01*
X402750Y421000D02*
X430500D01*
X552899Y255600D02*
X560000Y255600D01*
X548000Y260501D02*
X552899Y255600D01*
X548000Y260501D02*
Y303500D01*
X544950Y230800D02*
X562000D01*
X541750Y234000D02*
X544950Y230800D01*
X541750Y234000D02*
Y274250D01*
X538600Y332400D02*
X562000D01*
X187000Y95500D02*
Y412250D01*
Y95500D02*
X191500Y91000D01*
X202000D01*
X338750Y462250D02*
Y489000D01*
Y462250D02*
X338750Y462250D01*
X232000Y79500D02*
X232000D01*
Y91000D01*
X271000Y104000D02*
X298000Y77000D01*
X310000Y367000D02*
X327250Y349750D01*
X369500D01*
X372000Y352250D01*
Y361000D01*
X235000Y326000D02*
X238000Y323000D01*
Y289000D02*
Y323000D01*
X201000Y326000D02*
X235000D01*
X198000Y329000D02*
X201000Y326000D01*
X198000Y329000D02*
Y375000D01*
X202000Y379000D02*
X325000D01*
X198000Y375000D02*
X202000Y379000D01*
X314000Y91000D02*
X315000Y90000D01*
X285000Y416000D02*
X292000D01*
X308000Y400000D01*
X212600Y277400D02*
Y289000D01*
X220000Y104000D02*
X271000D01*
X308000Y400000D02*
X341000D01*
X399000Y472000D02*
X571000D01*
X575000Y468000D01*
Y284000D02*
Y468000D01*
X562000Y220000D02*
Y230800D01*
Y220000D02*
X562000Y220000D01*
X559000Y217000D02*
X562000Y220000D01*
X572600Y281600D02*
X575000Y284000D01*
X562000Y281600D02*
X572600D01*
X92600Y243600D02*
X95000Y246000D01*
X90200D02*
X95000D01*
X308000Y181000D02*
Y263000D01*
X248000Y121000D02*
X308000Y181000D01*
X330000Y361000D02*
Y374000D01*
X325000Y379000D02*
X330000Y374000D01*
X364750Y430250D02*
X399500Y395500D01*
X191000Y591000D02*
Y597000D01*
X106000Y399000D02*
X162000Y455000D01*
X331500D01*
X338750Y462250D01*
X120000Y403000D02*
X166000Y449000D01*
X422000D01*
X538600Y332400D01*
X381250Y442500D02*
X402750Y421000D01*
X380750Y442000D02*
X381250Y442500D01*
X285000D02*
X380250D01*
X380750Y442000D01*
X285250Y430250D02*
X364750D01*
X362500Y483250D02*
X387750D01*
X399000Y472000D01*
X210000Y355000D02*
X250000D01*
X262000Y367000D01*
X310000D01*
X191000Y597000D02*
X193500Y599500D01*
X269500D01*
X271000Y598000D01*
D21*
X291000Y326000D02*
D03*
D22*
X45000Y49000D02*
D03*
X534000Y49000D02*
D03*
Y609000D02*
D03*
X45000D02*
D03*
D23*
X536600Y408600D02*
D03*
Y434000D02*
D03*
Y459400D02*
D03*
Y510200D02*
D03*
X562000Y535600D02*
D03*
Y510200D02*
D03*
Y484800D02*
D03*
Y459400D02*
D03*
Y434000D02*
D03*
Y408600D02*
D03*
Y383200D02*
D03*
Y357800D02*
D03*
Y332400D02*
D03*
Y307000D02*
D03*
Y281600D02*
D03*
Y256200D02*
D03*
Y230800D02*
D03*
Y205400D02*
D03*
X536600D02*
D03*
X511200D02*
D03*
X485800D02*
D03*
X460400D02*
D03*
X435000D02*
D03*
X409600D02*
D03*
Y230800D02*
D03*
Y256200D02*
D03*
Y281600D02*
D03*
Y307000D02*
D03*
Y332400D02*
D03*
Y357800D02*
D03*
Y383200D02*
D03*
Y408600D02*
D03*
Y434000D02*
D03*
Y459400D02*
D03*
Y484800D02*
D03*
Y510200D02*
D03*
Y535600D02*
D03*
D24*
X90000Y389000D02*
D03*
X120000D02*
D03*
Y359000D02*
D03*
X90000D02*
D03*
X461800Y146000D02*
D03*
X491800D02*
D03*
X202000Y91000D02*
D03*
Y121000D02*
D03*
X232000D02*
D03*
Y91000D02*
D03*
X90000Y531000D02*
D03*
X120000D02*
D03*
Y501000D02*
D03*
X90000D02*
D03*
Y471000D02*
D03*
X120000D02*
D03*
X404000Y91000D02*
D03*
Y121000D02*
D03*
X314000Y91000D02*
D03*
Y121000D02*
D03*
X344000D02*
D03*
Y91000D02*
D03*
X374000D02*
D03*
Y121000D02*
D03*
X90200Y276000D02*
D03*
X120200D02*
D03*
Y246000D02*
D03*
X90200D02*
D03*
Y216000D02*
D03*
X120200D02*
D03*
X120000Y120200D02*
D03*
Y90200D02*
D03*
D25*
X212600Y289000D02*
D03*
X225300Y308050D02*
D03*
X238000Y289000D02*
D03*
D26*
X365000Y635000D02*
D03*
X187000Y412250D02*
D03*
X338750Y489000D02*
D03*
X366000Y267000D02*
D03*
X252703Y390297D02*
D03*
X285000Y416000D02*
D03*
X341000Y400000D02*
D03*
X210000Y355000D02*
D03*
X372000Y361000D02*
D03*
X150000Y289000D02*
D03*
X308000Y263000D02*
D03*
X330000Y361000D02*
D03*
X321000Y228000D02*
D03*
Y181750D02*
D03*
X237000Y499750D02*
D03*
X196000Y537000D02*
D03*
X322000Y611000D02*
D03*
X191000Y591000D02*
D03*
X271000Y598000D02*
D03*
X285000Y442500D02*
D03*
X364250Y527000D02*
D03*
X196500Y636750D02*
D03*
X285250Y430250D02*
D03*
X362500Y483250D02*
D03*
X198500Y390750D02*
D03*
D27*
X146500Y181500D02*
D03*
M02*
